<svg width="28" height="39" viewBox="0 0 28 39" fill="none" xmlns="http://www.w3.org/2000/svg">
<g clip-path="url(#clip0_421_620)">
<path d="M26.97 17.1577C26.9562 17.4148 26.8972 17.6592 26.8013 17.8826L26.7435 18.0065L26.5944 18.3273L26.4604 18.6168L24.1282 23.6494L24.1143 23.6795L24.112 23.6853C24.0831 23.7559 24.0646 23.8323 24.0611 23.9122C24.0611 23.925 24.0611 23.9365 24.0611 23.9493V26.7979C24.0611 26.8269 24.0611 26.857 24.0588 26.8859C24.0542 26.9728 24.0426 27.0573 24.0253 27.1395C23.9144 27.6641 23.5526 28.0925 23.0753 28.3033C22.843 28.4052 22.583 28.4561 22.3126 28.4422C22.0941 28.4307 21.8884 28.3774 21.7023 28.2917C21.2863 28.1006 20.965 27.7428 20.8205 27.3109C20.7743 27.1708 20.7466 27.0237 20.7396 26.8697V23.8231C20.7396 23.7246 20.742 23.6274 20.7477 23.5278C20.7581 23.3425 20.7766 23.1607 20.8044 22.9812C20.8783 22.5006 21.0147 22.0409 21.2054 21.6102L21.2817 21.4469L22.4651 18.8947C22.4975 18.8264 22.5171 18.7511 22.5217 18.6724C22.5379 18.3632 22.3137 18.0969 22.0109 18.0505L21.9809 18.0459L21.796 18.0228L10.3464 16.5625L7.99921 16.2638L7.97262 16.2603C6.89782 16.1179 6.07034 15.2575 5.96633 14.2037C5.93513 13.8737 5.91895 13.5391 5.91895 13.2009C5.91895 7.32073 10.692 2.55334 16.5791 2.55334C21.4932 2.55334 25.6294 5.87326 26.8637 10.3894C26.8891 10.4832 26.9134 10.5781 26.9377 10.6731C26.9539 10.768 26.9619 10.8653 26.9619 10.9649C26.9619 11.9179 26.1888 12.6914 25.2342 12.6914C24.4333 12.6914 23.7583 12.146 23.563 11.4072C23.5584 11.3875 23.5526 11.3667 23.548 11.347C22.7656 8.24595 19.9549 5.95085 16.608 5.95085C13.0184 5.95085 10.0448 8.59103 9.53051 12.0349C9.52704 12.0557 9.52358 12.0765 9.52126 12.0974C9.51895 12.1113 9.51664 12.1252 9.51549 12.1391C9.51549 12.153 9.51317 12.1657 9.51202 12.1796C9.49122 12.5664 9.75009 12.9022 10.113 12.9983L10.3256 13.0249L10.4019 13.0353L23.5804 14.7156L25.0677 14.9055L25.0862 14.9078C25.871 15.0109 26.5147 15.5238 26.8059 16.2128C26.9296 16.5023 26.9897 16.8243 26.9723 17.1601H26.97V17.1577Z" fill="url(#paint0_linear_421_620)"/>
<path d="M17.2503 0.540787C17.2468 0.598686 17.1971 0.643845 17.1382 0.640371C16.9359 0.631107 16.7314 0.627635 16.5256 0.627635C8.61256 0.627635 2.19843 7.03472 2.19843 14.9379C2.19843 20.9246 5.87818 26.0522 11.1019 28.1875C11.1412 28.2048 11.1678 28.2442 11.1643 28.2894C11.1609 28.3473 11.1112 28.3924 11.0522 28.389C11.0488 28.389 11.0453 28.389 11.0418 28.389C11.0361 28.389 11.0303 28.3866 11.0257 28.3855C11.0257 28.3855 11.0234 28.3855 11.0222 28.3843C4.76292 26.8523 0.118164 21.2107 0.118164 14.4851C0.118164 6.58195 6.5323 0.174866 14.4454 0.174866C15.3734 0.174866 16.2806 0.26403 17.159 0.431937C17.2098 0.440043 17.2491 0.489833 17.2491 0.541942L17.2503 0.540787Z" fill="url(#paint1_linear_421_620)"/>
<path d="M14.2914 32.1929C13.8626 32.1929 13.4605 31.9289 13.3056 31.5039C13.108 30.9597 13.3876 30.3587 13.932 30.1607L18.7963 28.3925C19.3407 28.1944 19.9428 28.4747 20.1404 29.0189C20.338 29.5632 20.0583 30.1642 19.514 30.3622L14.6497 32.1304C14.5318 32.1732 14.4104 32.1941 14.2914 32.1941V32.1929Z" fill="url(#paint2_linear_421_620)"/>
<path d="M16.8119 37.8415C16.3831 37.8415 15.981 37.5775 15.8261 37.1525C15.6285 36.6082 15.9081 36.0073 16.4525 35.8092L21.3168 34.041C21.8612 33.843 22.4633 34.1232 22.6609 34.6675C22.8585 35.2117 22.5789 35.8127 22.0345 36.0107L17.1702 37.779C17.0523 37.8218 16.9309 37.8427 16.8119 37.8427V37.8415Z" fill="url(#paint3_linear_421_620)"/>
<path d="M14.8285 35.2754C14.3997 35.2754 13.9976 35.0114 13.8427 34.5865C13.6451 34.0422 13.9248 33.4412 14.4691 33.2432L21.8656 30.5544C22.4099 30.3564 23.012 30.6366 23.2097 31.1808C23.4073 31.7251 23.1276 32.3261 22.5833 32.5241L15.1868 35.2129C15.0689 35.2558 14.9475 35.2766 14.8285 35.2766V35.2754Z" fill="url(#paint4_linear_421_620)"/>
</g>
<defs>
<linearGradient id="paint0_linear_421_620" x1="7.34334" y1="4.59738" x2="28.2147" y2="6.08752" gradientUnits="userSpaceOnUse">
<stop offset="0.0695937" stop-color="#246BFD"/>
<stop offset="0.816425" stop-color="#0040C3"/>
</linearGradient>
<linearGradient id="paint1_linear_421_620" x1="1.2771" y1="2.40231" x2="18.2969" y2="3.30959" gradientUnits="userSpaceOnUse">
<stop offset="0.0695937" stop-color="#246BFD"/>
<stop offset="0.816425" stop-color="#0040C3"/>
</linearGradient>
<linearGradient id="paint2_linear_421_620" x1="13.7131" y1="28.6341" x2="20.4796" y2="29.704" gradientUnits="userSpaceOnUse">
<stop offset="0.0695937" stop-color="#246BFD"/>
<stop offset="0.816425" stop-color="#0040C3"/>
</linearGradient>
<linearGradient id="paint3_linear_421_620" x1="16.2336" y1="34.2826" x2="23.0001" y2="35.3525" gradientUnits="userSpaceOnUse">
<stop offset="0.0695937" stop-color="#246BFD"/>
<stop offset="0.816425" stop-color="#0040C3"/>
</linearGradient>
<linearGradient id="paint4_linear_421_620" x1="14.4215" y1="30.8687" x2="23.6014" y2="32.4674" gradientUnits="userSpaceOnUse">
<stop offset="0.0695937" stop-color="#246BFD"/>
<stop offset="0.816425" stop-color="#0040C3"/>
</linearGradient>
<clipPath id="clip0_421_620">
<rect width="27.5317" height="38.0437" fill="white"/>
</clipPath>
</defs>
</svg>
