<svg width="244" height="342" viewBox="0 0 244 342" fill="none" xmlns="http://www.w3.org/2000/svg">
<path d="M241.556 154.363C241.431 156.673 240.901 158.868 240.039 160.876L239.519 161.99L238.178 164.872L236.973 167.473L216.001 212.692L215.876 212.963L215.855 213.015C215.595 213.649 215.429 214.336 215.398 215.054C215.398 215.168 215.398 215.272 215.398 215.387V240.983C215.398 241.243 215.398 241.513 215.377 241.773C215.335 242.554 215.232 243.313 215.076 244.052C214.078 248.765 210.825 252.615 206.533 254.509C204.444 255.424 202.106 255.882 199.674 255.757C197.71 255.653 195.86 255.175 194.187 254.405C190.445 252.688 187.556 249.473 186.257 245.592C185.841 244.333 185.592 243.012 185.529 241.628V214.253C185.529 213.368 185.55 212.494 185.602 211.6C185.696 209.935 185.862 208.301 186.111 206.689C186.777 202.371 188.003 198.24 189.718 194.369L190.404 192.902L201.046 169.97C201.337 169.356 201.513 168.68 201.555 167.972C201.7 165.194 199.684 162.801 196.961 162.385L196.691 162.343L195.028 162.135L92.0689 149.015L70.9616 146.331L70.7225 146.299C61.0574 145.02 53.6163 137.289 52.681 127.82C52.4004 124.855 52.2549 121.848 52.2549 118.81C52.2549 65.9746 95.1763 23.1382 148.116 23.1382C192.305 23.1382 229.501 52.9686 240.6 93.5472C240.828 94.39 241.047 95.2432 241.265 96.0964C241.41 96.9496 241.483 97.8235 241.483 98.7184C241.483 107.281 234.531 114.232 225.946 114.232C218.744 114.232 212.675 109.331 210.919 102.693C210.877 102.516 210.825 102.329 210.783 102.152C203.748 74.288 178.473 53.6658 148.376 53.6658C116.097 53.6658 89.3564 77.3886 84.7317 108.332C84.7006 108.52 84.6694 108.707 84.6486 108.894C84.6278 109.019 84.607 109.144 84.5966 109.269C84.5966 109.394 84.5758 109.508 84.5655 109.633C84.3784 113.108 86.7063 116.126 89.9696 116.989L91.8818 117.228L92.5677 117.322L211.074 132.419L224.45 134.126L224.616 134.147C231.673 135.073 237.461 139.682 240.08 145.873C241.192 148.474 241.733 151.366 241.577 154.384H241.556V154.363Z" fill="white"/>
<path d="M154.144 5.05451C154.113 5.57475 153.666 5.98052 153.136 5.9493C151.317 5.86607 149.478 5.83487 147.628 5.83487C76.4695 5.83487 18.7907 63.4044 18.7907 134.417C18.7907 188.21 51.8807 234.282 98.8552 253.468C99.2085 253.624 99.4476 253.978 99.4164 254.384C99.3852 254.904 98.9383 255.31 98.4083 255.279C98.3771 255.279 98.3459 255.279 98.3148 255.279C98.2628 255.279 98.2108 255.258 98.1693 255.247C98.1693 255.247 98.1485 255.247 98.1381 255.237C41.8518 241.472 0.0839844 190.779 0.0839844 130.349C0.0839844 59.3361 57.7629 1.7666 128.921 1.7666C137.266 1.7666 145.424 2.56777 153.323 4.07646C153.78 4.14929 154.133 4.59668 154.133 5.06489L154.144 5.05451Z" fill="white"/>
<path d="M127.549 289.458C123.693 289.458 120.077 287.086 118.684 283.267C116.907 278.377 119.422 272.977 124.317 271.198L168.059 255.31C172.954 253.53 178.369 256.048 180.146 260.939C181.923 265.829 179.408 271.229 174.513 273.008L130.771 288.896C129.711 289.281 128.62 289.468 127.549 289.468V289.458Z" fill="white"/>
<path d="M150.215 340.212C146.36 340.212 142.743 337.84 141.351 334.022C139.573 329.131 142.088 323.731 146.983 321.952L190.726 306.064C195.621 304.285 201.035 306.803 202.812 311.693C204.589 316.583 202.074 321.983 197.18 323.763L153.437 339.651C152.377 340.036 151.286 340.223 150.215 340.223V340.212Z" fill="white"/>
<path d="M132.382 317.156C128.526 317.156 124.91 314.783 123.517 310.965C121.74 306.075 124.255 300.674 129.15 298.895L195.662 274.735C200.557 272.956 205.972 275.474 207.749 280.364C209.526 285.255 207.011 290.655 202.116 292.434L135.603 316.594C134.543 316.979 133.452 317.166 132.382 317.166V317.156Z" fill="white"/>
</svg>
