<svg width="1440" height="1987" viewBox="0 0 1440 1987" fill="none" xmlns="http://www.w3.org/2000/svg">
<g clip-path="url(#clip0_548_199)">
<rect width="1440" height="1987" fill="#040B10"/>
<g opacity="0.59">
<path d="M-63.9023 285.976C-63.9023 285.976 242.747 156.597 392.72 179.289C542.692 201.98 804.572 378.339 710.563 462.909C616.553 547.478 936.635 550.572 936.635 550.572" stroke="#00FFFF" stroke-width="0.226661" stroke-miterlimit="10"/>
<path d="M-59.3994 288.506C-59.3124 288.211 233.911 155.615 385.792 177.274C537.674 198.934 787.95 375.144 701.397 458.977C614.843 542.81 934.291 547.231 934.291 547.231" stroke="#09FCFF" stroke-width="0.226661" stroke-miterlimit="10"/>
<path d="M-54.9043 291.038C-54.7364 290.448 225.06 154.634 378.864 175.259C532.667 195.884 771.32 371.951 692.229 455.048C613.138 538.144 931.945 543.889 931.945 543.889" stroke="#12F9FF" stroke-width="0.226661" stroke-miterlimit="10"/>
<path d="M-50.4004 293.57C-50.1454 292.684 216.218 153.65 371.944 173.246C527.669 192.842 754.699 368.761 683.07 451.121C611.442 533.481 929.609 540.553 929.609 540.553" stroke="#1BF6FF" stroke-width="0.226661" stroke-miterlimit="10"/>
<path d="M-45.9043 296.102C-45.5623 294.925 207.369 152.669 365.009 171.234C522.65 189.799 738.063 365.568 673.898 447.192C609.732 528.816 927.258 537.214 927.258 537.214" stroke="#24F3FF" stroke-width="0.226661" stroke-miterlimit="10"/>
<path d="M-41.4092 298.636C-40.9863 297.163 198.519 151.687 358.081 169.22C517.643 186.753 721.439 362.377 664.73 443.264C608.027 524.151 924.912 533.874 924.912 533.874" stroke="#2DF0FF" stroke-width="0.226661" stroke-miterlimit="10"/>
<path d="M-36.9062 301.164C-36.3963 299.396 189.676 150.702 351.153 167.204C512.631 183.706 704.811 359.183 655.57 439.331C606.33 519.482 922.575 530.531 922.575 530.531" stroke="#36EEFF" stroke-width="0.226661" stroke-miterlimit="10"/>
<path d="M-32.4102 303.699C-31.8194 301.636 180.826 149.724 344.226 165.191C507.625 180.662 688.182 355.99 646.404 435.404C604.626 514.819 920.23 527.194 920.23 527.194" stroke="#3FEBFF" stroke-width="0.226661" stroke-miterlimit="10"/>
<path d="M-27.9141 306.231C-27.2362 303.873 171.977 148.74 337.292 163.179C502.606 177.618 671.552 352.8 637.231 431.475C602.909 510.15 917.879 523.855 917.879 523.855" stroke="#48E8FF" stroke-width="0.226661" stroke-miterlimit="10"/>
<path d="M-23.4121 308.763C-22.6472 306.109 163.133 147.759 330.37 161.166C497.606 174.573 654.929 349.606 628.07 427.548C601.211 505.489 915.534 520.515 915.534 520.515" stroke="#51E5FF" stroke-width="0.226661" stroke-miterlimit="10"/>
<path d="M-18.916 311.296C-18.0703 308.35 154.284 146.776 323.435 159.152C492.587 171.527 638.294 346.414 618.897 423.617C599.501 500.819 913.184 517.175 913.184 517.175" stroke="#5AE2FF" stroke-width="0.226661" stroke-miterlimit="10"/>
<path d="M-14.4121 313.825C-13.4793 310.584 145.442 145.792 316.515 157.136C487.589 168.48 621.678 343.221 609.738 419.687C597.798 496.153 910.847 513.835 910.847 513.835" stroke="#62DFFF" stroke-width="0.226661" stroke-miterlimit="10"/>
<path d="M-9.91699 316.357C-8.89711 312.821 136.592 144.809 309.587 155.124C482.581 165.44 605.048 340.028 600.571 415.761C596.093 491.493 908.501 510.497 908.501 510.497" stroke="#6BDCFF" stroke-width="0.226661" stroke-miterlimit="10"/>
<path d="M-5.42188 318.891C-4.32115 315.06 127.741 143.829 302.651 153.11C477.562 162.391 588.412 336.837 591.397 411.83C594.382 486.823 906.149 507.156 906.149 507.156" stroke="#74D9FF" stroke-width="0.226661" stroke-miterlimit="10"/>
<path d="M-0.918945 321.421C0.268847 317.295 118.899 142.847 295.731 151.096C472.562 159.346 571.79 333.645 582.237 407.902C592.685 482.158 903.812 503.818 903.812 503.818" stroke="#7DD6FF" stroke-width="0.226661" stroke-miterlimit="10"/>
<path d="M3.57812 323.954C4.84676 319.533 110.05 141.864 288.797 149.084C467.545 156.305 555.161 330.453 573.065 403.973C590.969 477.493 901.462 500.477 901.462 500.477" stroke="#86D3FF" stroke-width="0.226661" stroke-miterlimit="10"/>
<path d="M8.07324 326.487C9.42894 321.773 101.2 140.884 281.869 147.07C462.537 153.259 538.531 327.261 563.898 400.045C589.264 472.829 899.116 497.139 899.116 497.139" stroke="#8FD1FF" stroke-width="0.226661" stroke-miterlimit="10"/>
<path d="M12.5762 329.017C14.0189 324.008 92.3572 139.898 274.941 145.056C457.525 150.213 521.903 324.068 554.732 396.113C587.561 468.161 896.772 493.797 896.772 493.797" stroke="#98CEFF" stroke-width="0.226661" stroke-miterlimit="10"/>
<path d="M17.0732 331.551C18.5968 326.247 83.5087 138.919 268.014 143.045C452.52 147.171 505.281 320.877 545.566 392.188C585.851 463.499 894.428 490.46 894.428 490.46" stroke="#A1CBFF" stroke-width="0.226661" stroke-miterlimit="10"/>
<path d="M21.5684 334.081C23.179 328.482 74.6583 137.936 261.086 141.027C447.513 144.119 488.65 317.682 536.398 388.254C584.146 458.826 892.083 487.116 892.083 487.116" stroke="#AAC8FF" stroke-width="0.226661" stroke-miterlimit="10"/>
<path d="M26.0713 336.613C27.769 330.719 65.8157 136.952 254.158 139.015C442.501 141.078 472.022 314.492 527.239 384.328C582.455 454.163 889.745 483.78 889.745 483.78" stroke="#B3C5FF" stroke-width="0.226661" stroke-miterlimit="10"/>
<path d="M30.5684 339.146C32.3469 332.957 56.9734 135.972 247.231 137.004C437.49 138.036 455.4 311.3 518.073 380.402C580.746 449.504 887.401 480.442 887.401 480.442" stroke="#BCC2FF" stroke-width="0.226661" stroke-miterlimit="10"/>
<path d="M24.6846 333.79C26.3823 327.896 63.7946 142.992 248.829 143.187C433.863 143.384 455.374 304.225 520.939 371.164C586.504 438.102 891.126 478.017 890.703 477.828" stroke="#B3B9FF" stroke-width="0.226661" stroke-miterlimit="10"/>
<path d="M18.8018 328.439C20.4124 322.84 70.6168 150.016 250.427 149.377C430.238 148.738 455.356 297.154 523.806 361.932C592.257 426.71 894.857 475.6 894.005 475.222" stroke="#AAB0FF" stroke-width="0.226661" stroke-miterlimit="10"/>
<path d="M12.9189 323.085C14.4426 317.781 77.4391 157.038 252.026 155.566C426.619 154.093 455.337 290.082 526.673 352.699C598.009 415.317 898.589 473.183 897.308 472.61" stroke="#A1A6FF" stroke-width="0.226661" stroke-miterlimit="10"/>
<path d="M7.0293 317.734C8.47206 312.726 84.2544 164.063 253.624 161.757C422.993 159.447 455.312 283.014 529.54 343.469C603.767 403.923 902.313 470.767 900.609 470.005" stroke="#989DFF" stroke-width="0.226661" stroke-miterlimit="10"/>
<path d="M1.14551 312.38C2.50121 307.667 91.0756 171.088 255.221 167.944C419.366 164.801 455.292 275.941 532.406 334.238C609.519 392.534 906.044 468.35 903.911 467.398" stroke="#8F94FF" stroke-width="0.226661" stroke-miterlimit="10"/>
<path d="M-4.73535 307.025C-3.46672 302.603 97.8998 178.108 256.821 174.128C415.743 170.147 455.276 268.863 535.275 324.999C615.273 381.135 909.777 465.925 907.221 464.782" stroke="#868BFF" stroke-width="0.226661" stroke-miterlimit="10"/>
<path d="M-10.6201 301.673C-9.43233 297.547 104.72 185.132 258.424 180.318C412.128 175.504 455.256 261.796 538.146 315.768C621.036 369.741 913.513 463.508 910.528 462.176" stroke="#7D81FF" stroke-width="0.226661" stroke-miterlimit="10"/>
<path d="M-16.5029 296.32C-15.4022 292.489 111.542 192.154 260.022 186.507C408.496 180.859 455.237 254.723 541.013 306.535C626.789 358.348 917.238 461.089 913.83 459.568" stroke="#7478FF" stroke-width="0.226661" stroke-miterlimit="10"/>
<path d="M-22.3857 290.967C-21.3659 287.431 118.371 199.177 261.621 192.696C404.871 186.214 455.219 247.651 543.88 297.303C632.542 346.954 920.97 458.67 917.133 456.96" stroke="#6B6FFF" stroke-width="0.226661" stroke-miterlimit="10"/>
<path d="M-28.2754 285.616C-27.3426 282.375 125.186 206.201 263.212 198.886C401.245 191.568 455.187 240.58 546.74 288.072C638.294 335.563 924.694 456.253 920.428 454.351" stroke="#6266FF" stroke-width="0.226661" stroke-miterlimit="10"/>
<path d="M-34.1572 280.259C-33.3115 277.314 132.009 213.223 264.818 205.068C397.627 196.913 455.176 233.505 549.614 278.835C644.053 324.166 928.433 453.834 923.738 451.739" stroke="#5A5CFF" stroke-width="0.226661" stroke-miterlimit="10"/>
<path d="M-40.041 274.907C-39.2761 272.254 138.831 220.247 266.416 211.258C394.001 202.27 455.156 226.433 552.481 269.604C649.805 312.774 932.157 451.416 927.046 449.132" stroke="#5153FF" stroke-width="0.226661" stroke-miterlimit="10"/>
<path d="M-45.9238 269.553C-45.246 267.195 145.653 227.269 268.014 217.446C390.375 207.624 455.131 219.36 555.348 260.37C655.564 301.379 935.889 448.996 930.348 446.52" stroke="#484AFF" stroke-width="0.226661" stroke-miterlimit="10"/>
<path d="M-51.8066 264.203C-51.2159 262.14 152.475 234.294 269.612 223.637C386.75 212.981 455.113 212.293 558.215 251.139C661.316 289.985 939.62 446.579 933.65 443.915" stroke="#3F41FF" stroke-width="0.226661" stroke-miterlimit="10"/>
<path d="M-57.6953 258.845C-57.1854 257.077 159.291 241.312 271.211 229.822C383.131 218.329 455.095 205.217 561.088 241.902C667.082 278.588 943.352 444.156 936.959 441.303" stroke="#3637FF" stroke-width="0.226661" stroke-miterlimit="10"/>
<path d="M-63.5791 253.494C-63.1562 252.021 166.112 248.336 272.809 236.01C379.505 223.683 455.069 198.143 563.954 232.671C672.839 267.199 947.082 441.739 940.26 438.693" stroke="#2D2EFF" stroke-width="0.226661" stroke-miterlimit="10"/>
<path d="M-69.4619 248.141C-69.1199 246.964 172.935 255.362 274.407 242.199C375.879 229.038 455.051 191.074 566.821 223.439C678.592 255.804 950.814 439.321 943.563 436.086" stroke="#2425FF" stroke-width="0.226661" stroke-miterlimit="10"/>
<path d="M-75.3447 242.789C-75.0898 241.903 179.763 262.385 276.012 248.388C372.26 234.39 455.038 184.002 569.695 214.206C684.351 244.41 954.552 436.902 946.878 433.478" stroke="#1B1CFF" stroke-width="0.226661" stroke-miterlimit="10"/>
<path d="M-81.2275 237.437C-81.0596 236.846 186.585 269.409 277.61 254.578C368.635 239.746 455.02 176.931 572.562 204.975C690.104 233.018 958.277 434.484 950.18 430.871" stroke="#1212FF" stroke-width="0.226661" stroke-miterlimit="10"/>
<path d="M-87.1104 232.082C-87.0233 231.787 193.408 276.43 279.208 260.762C365.009 245.094 454.995 169.857 575.429 195.737C695.862 221.617 962.008 432.064 953.482 428.256" stroke="#0909FF" stroke-width="0.226661" stroke-miterlimit="10"/>
<path d="M-93 226.728C-93 226.728 200.223 283.452 280.8 266.95C361.383 250.448 454.97 162.784 578.289 186.504C701.608 210.224 965.733 429.644 956.778 425.647" stroke="#0000FF" stroke-width="0.226661" stroke-miterlimit="10"/>
</g>
<g filter="url(#filter0_f_548_199)">
<circle cx="1365" cy="478" r="306" fill="#246BFD" fill-opacity="0.2"/>
<circle cx="1365" cy="478" r="305.655" stroke="white" stroke-width="0.689966"/>
</g>
<circle opacity="0.05" cx="-50" cy="1267" r="407" stroke="#246BFD" stroke-width="100"/>
<g filter="url(#filter1_f_548_199)">
<circle cx="-22.5" cy="-99.5" r="443.5" fill="#246BFD" fill-opacity="0.2"/>
<circle cx="-22.5" cy="-99.5" r="443" stroke="white"/>
</g>
<g filter="url(#filter2_f_548_199)">
<ellipse cx="1401" cy="1526" rx="211" ry="173" fill="#246BFD" fill-opacity="0.2"/>
<path d="M1401 1353.5C1517.35 1353.5 1611.5 1430.82 1611.5 1526C1611.5 1621.18 1517.35 1698.5 1401 1698.5C1284.65 1698.5 1190.5 1621.18 1190.5 1526C1190.5 1430.82 1284.65 1353.5 1401 1353.5Z" stroke="white"/>
</g>
<g filter="url(#filter3_f_548_199)">
<ellipse cx="465" cy="841" rx="211" ry="173" fill="#246BFD" fill-opacity="0.2"/>
<path d="M465 668.5C581.353 668.5 675.5 745.819 675.5 841C675.5 936.181 581.353 1013.5 465 1013.5C348.647 1013.5 254.5 936.181 254.5 841C254.5 745.819 348.647 668.5 465 668.5Z" stroke="white"/>
</g>
<circle opacity="0.05" cx="693" cy="-218" r="407" stroke="#246BFD" stroke-width="100"/>
</g>
<defs>
<filter id="filter0_f_548_199" x="921.007" y="34.0068" width="887.986" height="887.986" filterUnits="userSpaceOnUse" color-interpolation-filters="sRGB">
<feFlood flood-opacity="0" result="BackgroundImageFix"/>
<feBlend mode="normal" in="SourceGraphic" in2="BackgroundImageFix" result="shape"/>
<feGaussianBlur stdDeviation="68.9966" result="effect1_foregroundBlur_548_199"/>
</filter>
<filter id="filter1_f_548_199" x="-666" y="-743" width="1287" height="1287" filterUnits="userSpaceOnUse" color-interpolation-filters="sRGB">
<feFlood flood-opacity="0" result="BackgroundImageFix"/>
<feBlend mode="normal" in="SourceGraphic" in2="BackgroundImageFix" result="shape"/>
<feGaussianBlur stdDeviation="100" result="effect1_foregroundBlur_548_199"/>
</filter>
<filter id="filter2_f_548_199" x="990" y="1153" width="822" height="746" filterUnits="userSpaceOnUse" color-interpolation-filters="sRGB">
<feFlood flood-opacity="0" result="BackgroundImageFix"/>
<feBlend mode="normal" in="SourceGraphic" in2="BackgroundImageFix" result="shape"/>
<feGaussianBlur stdDeviation="100" result="effect1_foregroundBlur_548_199"/>
</filter>
<filter id="filter3_f_548_199" x="54" y="468" width="822" height="746" filterUnits="userSpaceOnUse" color-interpolation-filters="sRGB">
<feFlood flood-opacity="0" result="BackgroundImageFix"/>
<feBlend mode="normal" in="SourceGraphic" in2="BackgroundImageFix" result="shape"/>
<feGaussianBlur stdDeviation="100" result="effect1_foregroundBlur_548_199"/>
</filter>
<clipPath id="clip0_548_199">
<rect width="1440" height="1987" fill="white"/>
</clipPath>
</defs>
</svg>
