<svg width="35" height="35" viewBox="0 0 35 35" fill="none" xmlns="http://www.w3.org/2000/svg">
<path d="M17.5379 35.0091H17.4609C7.83306 35.0091 0 27.1738 0 17.5431V17.4661C0 7.83539 7.83306 0 17.4609 0H17.5379C27.1658 0 34.9988 7.83539 34.9988 17.4661V17.5431C34.9988 27.1738 27.1658 35.0091 17.5379 35.0091ZM17.4609 1.18502C8.48582 1.18502 1.18467 8.48833 1.18467 17.4661V17.5431C1.18467 26.5208 8.48582 33.8241 17.4609 33.8241H17.5379C26.513 33.8241 33.8141 26.5208 33.8141 17.5431V17.4661C33.8141 8.48833 26.513 1.18502 17.5379 1.18502H17.4609Z" fill="white"/>
<path d="M19.8542 13.5788V17.263H24.4105L23.689 22.2259H19.8542V33.6602C19.0854 33.7668 18.2988 33.8226 17.5003 33.8226C16.5786 33.8226 15.6735 33.7491 14.7921 33.6069V22.2259H10.5901V17.263H14.7921V12.7552C14.7921 9.95856 17.0584 7.69043 19.8554 7.69043V7.6928C19.8637 7.6928 19.8708 7.69043 19.8791 7.69043H24.4117V11.9826H21.45C20.5698 11.9826 19.8554 12.6971 19.8554 13.5776L19.8542 13.5788Z" fill="white"/>
</svg>
