<svg width="13" height="13" viewBox="0 0 13 13" fill="none" xmlns="http://www.w3.org/2000/svg">
<path d="M6.1834 12.3433H6.15625C2.76173 12.3433 0 9.58074 0 6.18522V6.15807C0 2.76255 2.76173 0 6.15625 0H6.1834C9.57792 0 12.3396 2.76255 12.3396 6.15807V6.18522C12.3396 9.58074 9.57792 12.3433 6.1834 12.3433ZM6.15625 0.417807C2.99187 0.417807 0.417684 2.99276 0.417684 6.15807V6.18522C0.417684 9.35053 2.99187 11.9255 6.15625 11.9255H6.1834C9.34778 11.9255 11.922 9.35053 11.922 6.18522V6.15807C11.922 2.99276 9.34778 0.417807 6.1834 0.417807H6.15625Z" fill="url(#paint0_linear_421_634)"/>
<path d="M6.99969 4.78757V6.08653H8.60611L8.35174 7.83631H6.99969V11.8677C6.72861 11.9053 6.45127 11.925 6.16975 11.925C5.84479 11.925 5.52568 11.8991 5.21493 11.8489V7.83631H3.7334V6.08653H5.21493V4.4972C5.21493 3.51117 6.01396 2.71149 7.00011 2.71149V2.71232C7.00303 2.71232 7.00554 2.71149 7.00846 2.71149H8.60652V4.22478H7.56231C7.25197 4.22478 7.00011 4.47672 7.00011 4.78715L6.99969 4.78757Z" fill="url(#paint1_linear_421_634)"/>
<defs>
<linearGradient id="paint0_linear_421_634" x1="0.834741" y1="0.974469" x2="13.0344" y2="2.04516" gradientUnits="userSpaceOnUse">
<stop offset="0.0695937" stop-color="#246BFD"/>
<stop offset="0.816425" stop-color="#0040C3"/>
</linearGradient>
<linearGradient id="paint1_linear_421_634" x1="4.06305" y1="3.43887" x2="8.90755" y2="3.66381" gradientUnits="userSpaceOnUse">
<stop offset="0.0695937" stop-color="#246BFD"/>
<stop offset="0.816425" stop-color="#0040C3"/>
</linearGradient>
</defs>
</svg>
