<svg width="30" height="30" viewBox="0 0 30 30" fill="none" xmlns="http://www.w3.org/2000/svg">
<path fill-rule="evenodd" clip-rule="evenodd" d="M25.2 15.2417C25.2 14.4882 25.1324 13.7638 25.0068 13.0684H15V17.1783H20.7182C20.4719 18.5064 19.7233 19.6317 18.598 20.3851V23.051H22.0318C24.0409 21.2013 25.2 18.4775 25.2 15.2417Z" fill="#4285F4"/>
<path fill-rule="evenodd" clip-rule="evenodd" d="M15 25.6248C17.8688 25.6248 20.2739 24.6734 22.0319 23.0507L18.598 20.3848C17.6466 21.0223 16.4296 21.399 15 21.399C12.2327 21.399 9.89036 19.5299 9.05485 17.0186H5.50513V19.7714C7.25343 23.2438 10.8466 25.6248 15 25.6248Z" fill="#34A853"/>
<path fill-rule="evenodd" clip-rule="evenodd" d="M9.05484 17.0189C8.84234 16.3814 8.7216 15.7004 8.7216 15.0001C8.7216 14.2998 8.84234 13.6189 9.05484 12.9814V10.2285H5.50512C4.78551 11.6629 4.375 13.2856 4.375 15.0001C4.375 16.7146 4.78551 18.3373 5.50512 19.7717L9.05484 17.0189Z" fill="#FBBC05"/>
<path fill-rule="evenodd" clip-rule="evenodd" d="M15 8.60086C16.56 8.60086 17.9605 9.13694 19.0617 10.1898L22.1091 7.14233C20.2691 5.42784 17.864 4.375 15 4.375C10.8466 4.375 7.25342 6.75597 5.50513 10.2284L9.05485 12.9813C9.89036 10.4699 12.2327 8.60086 15 8.60086Z" fill="#EA4335"/>
</svg>
