<svg width="13" height="13" viewBox="0 0 13 13" fill="none" xmlns="http://www.w3.org/2000/svg">
<path d="M6.1834 12.3433H6.15625C2.76173 12.3433 0 9.58074 0 6.18522V6.15806C0 2.76254 2.76173 0 6.15625 0H6.1834C9.57792 0 12.3396 2.76254 12.3396 6.15806V6.18522C12.3396 9.58074 9.57792 12.3433 6.1834 12.3433ZM6.15625 0.417807C2.99187 0.417807 0.417684 2.99275 0.417684 6.15806V6.18522C0.417684 9.35053 2.99187 11.9255 6.15625 11.9255H6.1834C9.34778 11.9255 11.922 9.35053 11.922 6.18522V6.15806C11.922 2.99275 9.34778 0.417807 6.1834 0.417807H6.15625Z" fill="url(#paint0_linear_421_628)"/>
<path d="M8.01576 2.63513H4.32677C3.30762 2.63513 2.47852 3.46448 2.47852 4.48393V7.85981C2.47852 8.87926 3.30762 9.7086 4.32677 9.7086H8.01576C9.03491 9.7086 9.86401 8.87926 9.86401 7.85981V4.48393C9.86401 3.46448 9.03491 2.63513 8.01576 2.63513ZM3.13052 4.48393C3.13052 3.82421 3.66725 3.28732 4.32677 3.28732H8.01576C8.67528 3.28732 9.21201 3.82421 9.21201 4.48393V7.85981C9.21201 8.51952 8.67528 9.05641 8.01576 9.05641H4.32677C3.66725 9.05641 3.13052 8.51952 3.13052 7.85981V4.48393Z" fill="url(#paint1_linear_421_628)"/>
<path d="M6.17134 7.89123C7.11907 7.89123 7.89053 7.11996 7.89053 6.17154C7.89053 5.22311 7.11948 4.45184 6.17134 4.45184C5.2232 4.45184 4.45215 5.22311 4.45215 6.17154C4.45215 7.11996 5.2232 7.89123 6.17134 7.89123ZM6.17134 5.10445C6.75986 5.10445 7.23852 5.58326 7.23852 6.17195C7.23852 6.76064 6.75986 7.23945 6.17134 7.23945C5.58282 7.23945 5.10415 6.76064 5.10415 6.17195C5.10415 5.58326 5.58282 5.10445 6.17134 5.10445Z" fill="url(#paint2_linear_421_628)"/>
<path d="M8.04915 4.72961C8.30435 4.72961 8.51236 4.52197 8.51236 4.26627C8.51236 4.01057 8.30477 3.80292 8.04915 3.80292C7.79353 3.80292 7.58594 4.01057 7.58594 4.26627C7.58594 4.52197 7.79353 4.72961 8.04915 4.72961Z" fill="url(#paint3_linear_421_628)"/>
<defs>
<linearGradient id="paint0_linear_421_628" x1="0.834741" y1="0.974469" x2="13.0344" y2="2.04516" gradientUnits="userSpaceOnUse">
<stop offset="0.0695937" stop-color="#246BFD"/>
<stop offset="0.816425" stop-color="#0040C3"/>
</linearGradient>
<linearGradient id="paint1_linear_421_628" x1="2.97812" y1="3.19356" x2="10.2748" y2="3.86239" gradientUnits="userSpaceOnUse">
<stop offset="0.0695937" stop-color="#246BFD"/>
<stop offset="0.816425" stop-color="#0040C3"/>
</linearGradient>
<linearGradient id="paint2_linear_421_628" x1="4.68474" y1="4.72337" x2="8.08411" y2="5.02172" gradientUnits="userSpaceOnUse">
<stop offset="0.0695937" stop-color="#246BFD"/>
<stop offset="0.816425" stop-color="#0040C3"/>
</linearGradient>
<linearGradient id="paint3_linear_421_628" x1="7.64861" y1="3.87608" x2="8.56452" y2="3.95646" gradientUnits="userSpaceOnUse">
<stop offset="0.0695937" stop-color="#246BFD"/>
<stop offset="0.816425" stop-color="#0040C3"/>
</linearGradient>
</defs>
</svg>
