<svg width="35" height="35" viewBox="0 0 35 35" fill="none" xmlns="http://www.w3.org/2000/svg">
<path d="M17.5379 35.0091H17.4609C7.83307 35.0091 0 27.1738 0 17.5431V17.466C0 7.83536 7.83307 0 17.4609 0H17.5379C27.1658 0 34.9988 7.83536 34.9988 17.466V17.5431C34.9988 27.1738 27.1658 35.0091 17.5379 35.0091ZM17.4609 1.18502C8.48582 1.18502 1.18467 8.4883 1.18467 17.466V17.5431C1.18467 26.5208 8.48582 33.8241 17.4609 33.8241H17.5379C26.513 33.8241 33.8141 26.5208 33.8141 17.5431V17.466C33.8141 8.4883 26.513 1.18502 17.5379 1.18502H17.4609Z" fill="white"/>
<path d="M22.7311 7.47363H12.2681C9.37746 7.47363 7.02588 9.8259 7.02588 12.7174V22.2923C7.02588 25.1838 9.37746 27.536 12.2681 27.536H22.7311C25.6217 27.536 27.9733 25.1838 27.9733 22.2923V12.7174C27.9733 9.8259 25.6217 7.47363 22.7311 7.47363ZM8.87516 12.7174C8.87516 10.8462 10.3975 9.32344 12.2681 9.32344H22.7311C24.6017 9.32344 26.124 10.8462 26.124 12.7174V22.2923C26.124 24.1635 24.6017 25.6862 22.7311 25.6862H12.2681C10.3975 25.6862 8.87516 24.1635 8.87516 22.2923V12.7174Z" fill="white"/>
<path d="M17.5001 22.3811C20.1882 22.3811 22.3763 20.1935 22.3763 17.5035C22.3763 14.8135 20.1894 12.626 17.5001 12.626C14.8109 12.626 12.624 14.8135 12.624 17.5035C12.624 20.1935 14.8109 22.3811 17.5001 22.3811ZM17.5001 14.477C19.1694 14.477 20.527 15.835 20.527 17.5047C20.527 19.1744 19.1694 20.5324 17.5001 20.5324C15.8309 20.5324 14.4733 19.1744 14.4733 17.5047C14.4733 15.835 15.8309 14.477 17.5001 14.477Z" fill="white"/>
<path d="M22.8275 13.4135C23.5513 13.4135 24.1413 12.8246 24.1413 12.0994C24.1413 11.3741 23.5525 10.7852 22.8275 10.7852C22.1025 10.7852 21.5137 11.3741 21.5137 12.0994C21.5137 12.8246 22.1025 13.4135 22.8275 13.4135Z" fill="white"/>
</svg>
