<svg width="23" height="23" viewBox="0 0 23 23" fill="none" xmlns="http://www.w3.org/2000/svg">
<path d="M21.7135 0.868163C21.2161 0.37079 20.5715 0.0613804 19.9215 0.0080002C19.2715 -0.04538 18.6693 0.161643 18.2474 0.583525L5.64901 13.182L4.90135 4.07777C4.82683 3.44128 4.5096 2.81811 4.01649 2.33954C3.52337 1.86097 2.89288 1.56436 2.25784 1.51221C1.62279 1.46006 1.03278 1.65643 0.612109 2.05996C0.191434 2.46349 -0.0270606 3.04267 0.00265594 3.67548L1.23609 18.6951C1.28983 19.3446 1.59916 19.9886 2.09613 20.4855C2.5931 20.9825 3.23707 21.2918 3.88659 21.3456L18.9062 22.579C19.2361 22.6176 19.5595 22.5898 19.8571 22.4972C20.1547 22.4045 20.4205 22.249 20.6385 22.0399C20.8565 21.8307 21.0224 21.5723 21.1261 21.2799C21.2299 20.9875 21.2694 20.6672 21.2424 20.338C21.2153 20.0089 21.1223 19.6777 20.9688 19.3642C20.8153 19.0507 20.6045 18.7612 20.3489 18.5132C20.0933 18.2652 19.7982 18.0636 19.4812 17.9205C19.1643 17.7774 18.8319 17.6957 18.5039 17.6803L9.39971 16.9327L21.9981 4.33422C22.8762 3.45615 22.7487 1.90336 21.7135 0.868163Z" fill="white"/>
</svg>
