<svg width="60" height="82" viewBox="0 0 60 82" fill="none" xmlns="http://www.w3.org/2000/svg">
<g clip-path="url(#clip0_79_105)">
<path d="M58.0944 37.0063C58.0645 37.5608 57.9376 38.0878 57.731 38.5698L57.6065 38.837L57.2854 39.5289L56.9966 40.1533L51.973 51.0077L51.9432 51.0726L51.9382 51.0851C51.876 51.2374 51.8361 51.4023 51.8287 51.5746C51.8287 51.6021 51.8287 51.627 51.8287 51.6545V57.7985C51.8287 57.861 51.8287 57.9259 51.8237 57.9883C51.8137 58.1757 51.7888 58.358 51.7515 58.5353C51.5125 59.6667 50.7333 60.5908 49.7052 61.0454C49.2049 61.2651 48.6448 61.375 48.0622 61.3451C47.5918 61.3201 47.1486 61.2052 46.7479 61.0204C45.8517 60.6083 45.1596 59.8365 44.8485 58.9049C44.7489 58.6027 44.6891 58.2856 44.6742 57.9534V51.3823C44.6742 51.17 44.6792 50.9602 44.6916 50.7454C44.714 50.3458 44.7539 49.9537 44.8136 49.5666C44.9729 48.5301 45.2667 47.5385 45.6774 46.6095L45.8417 46.2573L48.3908 40.7527C48.4605 40.6053 48.5029 40.443 48.5128 40.2731C48.5477 39.6063 48.0647 39.0318 47.4125 38.9319L47.3478 38.922L46.9495 38.872L22.2873 35.7226L17.2314 35.0782L17.1741 35.0707C14.859 34.7635 13.0766 32.9078 12.8526 30.635C12.7853 29.9232 12.7505 29.2014 12.7505 28.4722C12.7505 15.7895 23.0316 5.50708 35.7125 5.50708C46.2973 5.50708 55.2067 12.6676 57.8654 22.4081C57.9202 22.6104 57.9724 22.8152 58.0247 23.02C58.0596 23.2248 58.077 23.4346 58.077 23.6494C58.077 25.7049 56.4116 27.3732 54.3554 27.3732C52.6302 27.3732 51.1764 26.1969 50.7557 24.6034C50.7458 24.561 50.7333 24.516 50.7234 24.4736C49.0381 17.7851 42.9839 12.8349 35.7747 12.8349C28.0427 12.8349 21.6376 18.5294 20.5298 25.9571C20.5223 26.0021 20.5148 26.047 20.5099 26.092C20.5049 26.122 20.4999 26.1519 20.4974 26.1819C20.4974 26.2119 20.4924 26.2393 20.4899 26.2693C20.4451 27.1035 21.0028 27.8278 21.7844 28.0351L22.2425 28.0925L22.4068 28.115L50.7931 31.739L53.9969 32.1486L54.0367 32.1536C55.727 32.3758 57.1136 33.4823 57.7409 34.9683C58.0073 35.5927 58.1367 36.287 58.0994 37.0113H58.0944V37.0063Z" fill="#0E51DA"/>
<path d="M37.1564 1.16643C37.1489 1.29131 37.0419 1.38871 36.9149 1.38121C36.4793 1.36123 36.0386 1.35374 35.5955 1.35374C18.5508 1.35374 4.73478 15.1728 4.73478 32.2186C4.73478 45.131 12.6609 56.1902 23.9129 60.7957C23.9975 60.8332 24.0548 60.9181 24.0473 61.0155C24.0399 61.1404 23.9328 61.2378 23.8059 61.2303C23.7984 61.2303 23.7909 61.2303 23.7835 61.2303C23.771 61.2303 23.7586 61.2253 23.7486 61.2228C23.7486 61.2228 23.7436 61.2228 23.7411 61.2203C10.2587 57.916 0.253906 45.7479 0.253906 31.2421C0.253906 14.1962 14.0699 0.377197 31.1147 0.377197C33.1136 0.377197 35.0678 0.56951 36.9597 0.931656C37.0692 0.949139 37.1539 1.05653 37.1539 1.16892L37.1564 1.16643Z" fill="#0E51DA"/>
<path d="M30.7864 69.4346C29.8628 69.4346 28.9965 68.8652 28.6629 67.9486C28.2372 66.7747 28.8397 65.4785 30.0122 65.0514L40.4899 61.2376C41.6624 60.8105 42.9594 61.4149 43.3851 62.5888C43.8108 63.7627 43.2083 65.0589 42.0358 65.486L31.5581 69.2997C31.3042 69.3922 31.0428 69.4371 30.7864 69.4371V69.4346Z" fill="#0E51DA"/>
<path d="M36.2151 81.6177C35.2915 81.6177 34.4252 81.0483 34.0916 80.1317C33.666 78.9578 34.2684 77.6616 35.4409 77.2345L45.9186 73.4207C47.0911 72.9936 48.3881 73.5981 48.8138 74.7719C49.2395 75.9458 48.637 77.242 47.4646 77.6691L36.9868 81.4829C36.7329 81.5753 36.4715 81.6202 36.2151 81.6202V81.6177Z" fill="#0E51DA"/>
<path d="M31.9436 76.0833C31.02 76.0833 30.1537 75.5138 29.8202 74.5972C29.3945 73.4234 29.9969 72.1271 31.1694 71.7L47.1014 65.9007C48.2739 65.4736 49.5708 66.078 49.9965 67.2519C50.4222 68.4257 49.8198 69.722 48.6473 70.1491L32.7153 75.9484C32.4614 76.0408 32.2 76.0858 31.9436 76.0858V76.0833Z" fill="#0E51DA"/>
</g>
<defs>
<clipPath id="clip0_79_105">
<rect width="59.3421" height="81.9999" fill="white"/>
</clipPath>
</defs>
</svg>
