<svg width="35" height="35" viewBox="0 0 35 35" fill="none" xmlns="http://www.w3.org/2000/svg">
<path d="M17.5379 34.9988H17.4609C7.83308 34.9988 0 27.1657 0 17.5379V17.4609C0 7.83308 7.83308 0 17.4609 0H17.5379C27.1657 0 34.9988 7.83308 34.9988 17.4609V17.5379C34.9988 27.1657 27.1657 34.9988 17.5379 34.9988ZM17.4609 1.18467C8.48583 1.18467 1.18467 8.48583 1.18467 17.4609V17.5379C1.18467 26.513 8.48583 33.8141 17.4609 33.8141H17.5379C26.513 33.8141 33.8141 26.513 33.8141 17.5379V17.4609C33.8141 8.48583 26.513 1.18467 17.5379 1.18467H17.4609Z" fill="white"/>
<path d="M8.65646 11.8309C8.21102 11.4175 7.9895 10.9057 7.9895 10.2968C7.9895 9.68787 8.21221 9.15357 8.65646 8.73893C9.1019 8.32548 9.67528 8.11816 10.3778 8.11816C11.0803 8.11816 11.6312 8.32548 12.0754 8.73893C12.5209 9.15238 12.7424 9.67247 12.7424 10.2968C12.7424 10.9211 12.5197 11.4175 12.0754 11.8309C11.63 12.2444 11.0649 12.4517 10.3778 12.4517C9.69068 12.4517 9.1019 12.2444 8.65646 11.8309ZM12.368 14.2027V26.8787H8.36266V14.2027H12.368Z" fill="white"/>
<path d="M25.7021 15.4548C26.5752 16.4025 27.0112 17.7033 27.0112 19.3595V26.6547H23.2072V19.8736C23.2072 19.0385 22.9904 18.3893 22.558 17.9272C22.1256 17.4652 21.5428 17.233 20.813 17.233C20.0832 17.233 19.5004 17.464 19.068 17.9272C18.6355 18.3893 18.4188 19.0385 18.4188 19.8736V26.6547H14.5923V14.1671H18.4188V15.8233C18.8061 15.2712 19.3286 14.8352 19.9849 14.5142C20.6412 14.1931 21.3793 14.0332 22.2003 14.0332C23.6621 14.0332 24.8302 14.5071 25.7021 15.4548Z" fill="white"/>
</svg>
