<svg width="13" height="13" viewBox="0 0 13 13" fill="none" xmlns="http://www.w3.org/2000/svg">
<path d="M6.1834 12.3396H6.15625C2.76173 12.3396 0 9.57792 0 6.1834V6.15625C0 2.76173 2.76173 0 6.15625 0H6.1834C9.57792 0 12.3396 2.76173 12.3396 6.15625V6.1834C12.3396 9.57792 9.57792 12.3396 6.1834 12.3396ZM6.15625 0.417684C2.99188 0.417684 0.417684 2.99188 0.417684 6.15625V6.1834C0.417684 9.34777 2.99188 11.922 6.15625 11.922H6.1834C9.34777 11.922 11.922 9.34777 11.922 6.1834V6.15625C11.922 2.99188 9.34777 0.417684 6.1834 0.417684H6.15625Z" fill="url(#paint0_linear_421_641)"/>
<path d="M3.05253 4.17145C2.89548 4.02568 2.81738 3.84524 2.81738 3.63055C2.81738 3.41586 2.8959 3.22748 3.05253 3.08129C3.20958 2.93552 3.41174 2.86243 3.65943 2.86243C3.90712 2.86243 4.10134 2.93552 4.25797 3.08129C4.41502 3.22706 4.49313 3.41043 4.49313 3.63055C4.49313 3.85067 4.41461 4.02568 4.25797 4.17145C4.10093 4.31722 3.90169 4.39032 3.65943 4.39032C3.41717 4.39032 3.20958 4.31722 3.05253 4.17145ZM4.36114 5.00766V9.47688H2.94895V5.00766H4.36114Z" fill="url(#paint1_linear_421_641)"/>
<path d="M9.06352 5.4491C9.37135 5.78324 9.52506 6.24187 9.52506 6.82579V9.39788H8.18388V7.00706C8.18388 6.71259 8.10745 6.48371 7.95499 6.32081C7.80254 6.15791 7.59704 6.07604 7.33974 6.07604C7.08245 6.07604 6.87694 6.15749 6.72449 6.32081C6.57203 6.48371 6.4956 6.71259 6.4956 7.00706V9.39788H5.14648V4.99508H6.4956V5.579C6.63218 5.38436 6.81639 5.23065 7.04778 5.11746C7.27918 5.00427 7.5394 4.94788 7.82885 4.94788C8.34427 4.94788 8.7561 5.11495 9.06352 5.4491Z" fill="url(#paint2_linear_421_641)"/>
<defs>
<linearGradient id="paint0_linear_421_641" x1="0.834741" y1="0.974182" x2="13.0343" y2="2.04518" gradientUnits="userSpaceOnUse">
<stop offset="0.0695937" stop-color="#246BFD"/>
<stop offset="0.816425" stop-color="#0040C3"/>
</linearGradient>
<linearGradient id="paint1_linear_421_641" x1="2.93074" y1="3.38462" x2="4.59941" y2="3.42173" gradientUnits="userSpaceOnUse">
<stop offset="0.0695937" stop-color="#246BFD"/>
<stop offset="0.816425" stop-color="#0040C3"/>
</linearGradient>
<linearGradient id="paint2_linear_421_641" x1="5.44268" y1="5.29919" x2="9.77262" y2="5.67322" gradientUnits="userSpaceOnUse">
<stop offset="0.0695937" stop-color="#246BFD"/>
<stop offset="0.816425" stop-color="#0040C3"/>
</linearGradient>
</defs>
</svg>
