<svg width="60" height="82" viewBox="0 0 60 82" fill="none" xmlns="http://www.w3.org/2000/svg">
<g clip-path="url(#clip0_606_33)">
<path d="M58.0944 37.0065C58.0645 37.5609 57.9376 38.0879 57.731 38.5699L57.6065 38.8372L57.2854 39.529L56.9966 40.1534L51.973 51.0078L51.9432 51.0727L51.9382 51.0852C51.876 51.2376 51.8361 51.4024 51.8287 51.5747C51.8287 51.6022 51.8287 51.6272 51.8287 51.6546V57.7986C51.8287 57.8611 51.8287 57.926 51.8237 57.9885C51.8137 58.1758 51.7888 58.3581 51.7515 58.5354C51.5125 59.6668 50.7333 60.5909 49.7052 61.0455C49.2049 61.2653 48.6448 61.3752 48.0622 61.3452C47.5918 61.3202 47.1486 61.2053 46.7479 61.0205C45.8517 60.6084 45.1596 59.8367 44.8485 58.9051C44.7489 58.6029 44.6891 58.2857 44.6742 57.9535V51.3824C44.6742 51.1701 44.6792 50.9603 44.6916 50.7455C44.714 50.3459 44.7539 49.9538 44.8136 49.5667C44.9729 48.5302 45.2667 47.5387 45.6774 46.6096L45.8417 46.2574L48.3908 40.7528C48.4605 40.6054 48.5029 40.4431 48.5128 40.2733C48.5477 39.6064 48.0647 39.032 47.4125 38.9321L47.3478 38.9221L46.9495 38.8721L22.2873 35.7227L17.2314 35.0783L17.1741 35.0708C14.859 34.7636 13.0766 32.9079 12.8526 30.6352C12.7853 29.9234 12.7505 29.2016 12.7505 28.4723C12.7505 15.7897 23.0316 5.5072 35.7125 5.5072C46.2973 5.5072 55.2067 12.6677 57.8654 22.4082C57.9202 22.6105 57.9724 22.8153 58.0247 23.0201C58.0596 23.2249 58.077 23.4347 58.077 23.6495C58.077 25.705 56.4116 27.3734 54.3554 27.3734C52.6302 27.3734 51.1764 26.197 50.7557 24.6036C50.7458 24.5611 50.7333 24.5161 50.7234 24.4737C49.0381 17.7852 42.9839 12.835 35.7747 12.835C28.0427 12.835 21.6376 18.5295 20.5298 25.9572C20.5223 26.0022 20.5148 26.0471 20.5099 26.0921C20.5049 26.1221 20.4999 26.152 20.4974 26.182C20.4974 26.212 20.4924 26.2395 20.4899 26.2694C20.4451 27.1036 21.0028 27.8279 21.7844 28.0352L22.2425 28.0927L22.4068 28.1151L50.7931 31.7391L53.9969 32.1487L54.0367 32.1537C55.727 32.376 57.1136 33.4824 57.7409 34.9684C58.0073 35.5928 58.1367 36.2872 58.0994 37.0114H58.0944V37.0065Z" fill="#0A1D3F"/>
<path d="M37.1564 1.16643C37.1489 1.29131 37.0419 1.38871 36.9149 1.38121C36.4793 1.36123 36.0386 1.35374 35.5955 1.35374C18.5508 1.35374 4.73478 15.1728 4.73478 32.2186C4.73478 45.131 12.6609 56.1902 23.9129 60.7957C23.9975 60.8332 24.0548 60.9181 24.0473 61.0155C24.0399 61.1404 23.9328 61.2378 23.8059 61.2303C23.7984 61.2303 23.7909 61.2303 23.7835 61.2303C23.771 61.2303 23.7586 61.2253 23.7486 61.2228C23.7486 61.2228 23.7436 61.2228 23.7411 61.2203C10.2587 57.916 0.253906 45.7479 0.253906 31.2421C0.253906 14.1962 14.0699 0.377197 31.1147 0.377197C33.1136 0.377197 35.0678 0.56951 36.9597 0.931656C37.0692 0.949139 37.1539 1.05653 37.1539 1.16892L37.1564 1.16643Z" fill="#0A1D3F"/>
<path d="M30.7864 69.4347C29.8628 69.4347 28.9965 68.8652 28.6629 67.9486C28.2372 66.7748 28.8397 65.4785 30.0122 65.0515L40.4899 61.2377C41.6624 60.8106 42.9594 61.415 43.3851 62.5889C43.8108 63.7627 43.2083 65.0589 42.0358 65.486L31.5581 69.2998C31.3042 69.3922 31.0428 69.4372 30.7864 69.4372V69.4347Z" fill="#0A1D3F"/>
<path d="M36.2151 81.6178C35.2915 81.6178 34.4252 81.0483 34.0916 80.1317C33.666 78.9579 34.2684 77.6617 35.4409 77.2346L45.9186 73.4208C47.0911 72.9937 48.3881 73.5981 48.8138 74.772C49.2395 75.9458 48.637 77.2421 47.4646 77.6691L36.9868 81.4829C36.7329 81.5753 36.4715 81.6203 36.2151 81.6203V81.6178Z" fill="#0A1D3F"/>
<path d="M31.9436 76.0833C31.02 76.0833 30.1537 75.5138 29.8202 74.5972C29.3945 73.4234 29.9969 72.1271 31.1694 71.7L47.1014 65.9007C48.2739 65.4736 49.5708 66.078 49.9965 67.2519C50.4222 68.4257 49.8198 69.722 48.6473 70.1491L32.7153 75.9484C32.4614 76.0408 32.2 76.0858 31.9436 76.0858V76.0833Z" fill="#0A1D3F"/>
</g>
<defs>
<clipPath id="clip0_606_33">
<rect width="59.3421" height="81.9999" fill="white"/>
</clipPath>
</defs>
</svg>
