<svg width="800" height="800" viewBox="0 0 800 800" fill="none" xmlns="http://www.w3.org/2000/svg">
<path d="M429.667 195.964H170.333C113.333 195.964 66.6665 242.631 66.6665 299.631V678.297C66.6665 726.63 101.333 747.297 143.666 723.63L274.666 650.63C288.666 642.964 311.333 642.964 325 650.63L456 723.63C498.666 746.964 533.333 726.63 533.333 678.297V299.631C533.333 242.631 486.667 195.964 429.667 195.964Z" fill="#FFE600"/>
<path d="M733.327 170.334V549C733.327 597.334 698.66 617.667 656.327 594.334L591.993 558.334C586.66 555.334 583.327 549.667 583.327 543.667V299.667C583.327 215 514.327 146 429.66 146H293.995C281.662 146 272.995 133 278.662 122.334C295.995 89.3337 330.662 66.667 370.327 66.667H629.66C686.66 66.667 733.327 113.334 733.327 170.334Z" fill="#FFE600"/>
</svg>
