<svg width="800" height="800" viewBox="0 0 800 800" fill="none" xmlns="http://www.w3.org/2000/svg">
<path d="M429.667 195.964H170.334C113.334 195.964 66.667 242.631 66.667 299.631V678.297C66.667 726.63 101.334 747.297 143.667 723.63L274.667 650.63C288.667 642.964 311.334 642.964 325 650.63L456 723.63C498.667 746.964 533.334 726.63 533.334 678.297V299.631C533.334 242.631 486.667 195.964 429.667 195.964Z" fill="#003771"/>
<path d="M733.326 170.334V549C733.326 597.334 698.66 617.667 656.326 594.334L591.993 558.334C586.66 555.334 583.326 549.667 583.326 543.667V299.667C583.326 215 514.326 146 429.66 146H293.994C281.661 146 272.994 133 278.661 122.334C295.994 89.3337 330.661 66.667 370.326 66.667H629.66C686.66 66.667 733.326 113.334 733.326 170.334Z" fill="#003771"/>
</svg>
