<svg width="40" height="40" viewBox="0 0 40 40" fill="none" xmlns="http://www.w3.org/2000/svg">
<path d="M20 0C20.442 0 20.8659 0.175595 21.1785 0.488155C21.4911 0.800716 21.6667 1.22464 21.6667 1.66667V8.33333C21.6667 8.77536 21.4911 9.19928 21.1785 9.51184C20.8659 9.8244 20.442 10 20 10C19.558 10 19.134 9.8244 18.8215 9.51184C18.5089 9.19928 18.3333 8.77536 18.3333 8.33333V1.66667C18.3333 1.22464 18.5089 0.800716 18.8215 0.488155C19.134 0.175595 19.558 0 20 0ZM8.215 5.85833C7.90066 5.55474 7.47966 5.38675 7.04266 5.39054C6.60567 5.39434 6.18765 5.56962 5.87864 5.87864C5.56962 6.18765 5.39434 6.60567 5.39054 7.04266C5.38675 7.47966 5.55474 7.90066 5.85833 8.215L10.5717 12.9283C10.886 13.2319 11.307 13.3999 11.744 13.3961C12.181 13.3923 12.599 13.217 12.908 12.908C13.217 12.599 13.3923 12.181 13.3961 11.744C13.3999 11.307 13.2319 10.886 12.9283 10.5717L8.215 5.85833ZM1.66667 18.3333C1.22464 18.3333 0.800716 18.5089 0.488155 18.8215C0.175595 19.134 0 19.558 0 20C0 20.442 0.175595 20.8659 0.488155 21.1785C0.800716 21.4911 1.22464 21.6667 1.66667 21.6667H8.33333C8.77536 21.6667 9.19928 21.4911 9.51184 21.1785C9.8244 20.8659 10 20.442 10 20C10 19.558 9.8244 19.134 9.51184 18.8215C9.19928 18.5089 8.77536 18.3333 8.33333 18.3333H1.66667ZM30 20C30 19.558 30.1756 19.134 30.4882 18.8215C30.8007 18.5089 31.2246 18.3333 31.6667 18.3333H38.3333C38.7754 18.3333 39.1993 18.5089 39.5118 18.8215C39.8244 19.134 40 19.558 40 20C40 20.442 39.8244 20.8659 39.5118 21.1785C39.1993 21.4911 38.7754 21.6667 38.3333 21.6667H31.6667C31.2246 21.6667 30.8007 21.4911 30.4882 21.1785C30.1756 20.8659 30 20.442 30 20ZM29.4283 27.0717C29.114 26.7681 28.693 26.6001 28.256 26.6039C27.819 26.6077 27.401 26.783 27.092 27.092C26.783 27.401 26.6077 27.819 26.6039 28.256C26.6001 28.693 26.7681 29.114 27.0717 29.4283L31.785 34.1417C31.9387 34.3008 32.1227 34.4278 32.326 34.5152C32.5293 34.6025 32.748 34.6485 32.9693 34.6504C33.1906 34.6523 33.4101 34.6102 33.6149 34.5264C33.8198 34.4426 34.0058 34.3188 34.1623 34.1623C34.3188 34.0058 34.4426 33.8198 34.5264 33.6149C34.6102 33.4101 34.6523 33.1906 34.6504 32.9693C34.6485 32.748 34.6025 32.5293 34.5152 32.326C34.4278 32.1227 34.3008 31.9387 34.1417 31.785L29.4283 27.0717ZM12.9283 29.4283C13.0875 29.2746 13.2145 29.0907 13.3018 28.8873C13.3892 28.684 13.4352 28.4653 13.4371 28.244C13.439 28.0227 13.3968 27.8032 13.313 27.5984C13.2292 27.3936 13.1055 27.2075 12.949 27.051C12.7925 26.8945 12.6064 26.7708 12.4016 26.687C12.1968 26.6032 11.9773 26.561 11.756 26.5629C11.5347 26.5648 11.316 26.6108 11.1127 26.6982C10.9093 26.7855 10.7254 26.9125 10.5717 27.0717L5.85833 31.7833C5.69915 31.9371 5.57218 32.121 5.48483 32.3243C5.39748 32.5277 5.35151 32.7464 5.34958 32.9677C5.34766 33.189 5.38983 33.4084 5.47363 33.6133C5.55743 33.8181 5.68119 34.0042 5.83767 34.1607C5.99416 34.3171 6.18025 34.4409 6.38508 34.5247C6.5899 34.6085 6.80937 34.6507 7.03067 34.6488C7.25197 34.6468 7.47067 34.6008 7.67401 34.5135C7.87735 34.4262 8.06125 34.2992 8.215 34.14L12.9283 29.4283ZM34.1417 8.215C34.4453 7.90066 34.6133 7.47966 34.6095 7.04266C34.6057 6.60567 34.4304 6.18765 34.1214 5.87864C33.8124 5.56962 33.3943 5.39434 32.9573 5.39054C32.5203 5.38675 32.0993 5.55474 31.785 5.85833L27.0717 10.5717C26.9125 10.7254 26.7855 10.9093 26.6982 11.1127C26.6108 11.316 26.5648 11.5347 26.5629 11.756C26.561 11.9773 26.6032 12.1968 26.687 12.4016C26.7708 12.6064 26.8945 12.7925 27.051 12.949C27.2075 13.1055 27.3936 13.2292 27.5984 13.313C27.8032 13.3968 28.0227 13.439 28.244 13.4371C28.4653 13.4352 28.684 13.3892 28.8873 13.3018C29.0907 13.2145 29.2746 13.0875 29.4283 12.9283L34.1417 8.215ZM21.6667 31.6667C21.6667 31.2246 21.4911 30.8007 21.1785 30.4882C20.8659 30.1756 20.442 30 20 30C19.558 30 19.134 30.1756 18.8215 30.4882C18.5089 30.8007 18.3333 31.2246 18.3333 31.6667V38.3333C18.3333 38.7754 18.5089 39.1993 18.8215 39.5118C19.134 39.8244 19.558 40 20 40C20.442 40 20.8659 39.8244 21.1785 39.5118C21.4911 39.1993 21.6667 38.7754 21.6667 38.3333V31.6667ZM20 26.6667C21.7681 26.6667 23.4638 25.9643 24.714 24.714C25.9643 23.4638 26.6667 21.7681 26.6667 20C26.6667 18.2319 25.9643 16.5362 24.714 15.286C23.4638 14.0357 21.7681 13.3333 20 13.3333C18.2319 13.3333 16.5362 14.0357 15.286 15.286C14.0357 16.5362 13.3333 18.2319 13.3333 20C13.3333 21.7681 14.0357 23.4638 15.286 24.714C16.5362 25.9643 18.2319 26.6667 20 26.6667Z" fill="white"/>
</svg>
