<svg width="80" height="80" viewBox="0 0 80 80" fill="none" xmlns="http://www.w3.org/2000/svg">
<mask id="mask0_380_98" style="mask-type:alpha" maskUnits="userSpaceOnUse" x="0" y="0" width="80" height="80">
<path fill-rule="evenodd" clip-rule="evenodd" d="M56.7295 79.2474C57.9895 79.7383 59.4262 79.7068 60.698 79.0948L77.1686 71.1695C78.8994 70.3367 80 68.5851 80 66.6635V12.9243C80 11.0027 78.8994 9.25114 77.1687 8.41834L60.698 0.492705C59.029 -0.310403 57.0757 -0.113691 55.6108 0.951261C55.4016 1.10339 55.2022 1.27324 55.0152 1.46043L23.4841 30.2269L9.74976 19.8014C8.4712 18.8309 6.6829 18.9104 5.49546 19.9906L1.09042 23.9976C-0.362041 25.3188 -0.363706 27.6039 1.08682 28.9273L12.9977 39.7938L1.08682 50.6603C-0.363706 51.9836 -0.362041 54.2687 1.09042 55.5899L5.49546 59.597C6.6829 60.6771 8.4712 60.7567 9.74976 59.7861L23.4841 49.3607L55.0152 78.1271C55.514 78.6262 56.0997 79.002 56.7295 79.2474ZM60.0122 21.6328L36.0873 39.7938L60.0122 57.9547V21.6328Z" fill="white"/>
</mask>
<g mask="url(#mask0_380_98)">
<path d="M77.1689 8.43L60.6853 0.493476C58.7773 -0.425176 56.4972 -0.0376691 54.9998 1.45971L1.03866 50.6596C-0.412758 51.9829 -0.411089 54.268 1.04226 55.5892L5.44997 59.5962C6.63814 60.6764 8.42756 60.7559 9.70684 59.7854L74.6885 10.489C76.8686 8.83512 79.9998 10.39 79.9998 13.1264V12.935C79.9998 11.0142 78.8995 9.26328 77.1689 8.43Z" fill="#0E51DA"/>
<g filter="url(#filter0_d_380_98)">
<path d="M77.1697 71.1552L60.6861 79.0918C58.7781 80.0106 56.4979 79.6229 55.0005 78.1255L1.03939 28.9257C-0.412025 27.6023 -0.410356 25.3172 1.04299 23.996L5.45071 19.989C6.63887 18.9088 8.42829 18.8293 9.70757 19.7998L74.6893 69.0962C76.8693 70.7501 80.0005 69.1952 80.0005 66.4589V66.6502C80.0005 68.571 78.9002 70.3219 77.1697 71.1552Z" fill="url(#paint0_linear_380_98)"/>
</g>
<g filter="url(#filter1_d_380_98)">
<path d="M60.6875 79.0939C58.7789 80.012 56.4987 79.6236 55.0012 78.1261C56.8463 79.9712 60.0012 78.6644 60.0012 76.0551V3.53053C60.0012 0.921135 56.8463 -0.385662 55.0012 1.45945C56.4987 -0.0380558 58.7789 -0.42611 60.6875 0.491729L77.1682 8.41738C78.8999 9.25018 80.0012 11.0018 80.0012 12.9234V66.6625C80.0012 68.5841 78.8999 70.3357 77.1681 71.1685L60.6875 79.0939Z" fill="url(#paint1_linear_380_98)"/>
</g>
<g style="mix-blend-mode:overlay" opacity="0.25">
<path fill-rule="evenodd" clip-rule="evenodd" d="M56.6814 79.2465C57.9414 79.7373 59.3782 79.7058 60.6499 79.0939L77.1205 71.1685C78.8512 70.3357 79.9519 68.5841 79.9519 66.6625V12.9234C79.9519 11.0017 78.8513 9.25013 77.1206 8.41733L60.6499 0.491729C58.9809 -0.311379 57.0276 -0.114667 55.5627 0.950277C55.3535 1.10241 55.1541 1.27227 54.9671 1.45945L23.436 30.2259L9.70165 19.8005C8.42317 18.8299 6.63481 18.9095 5.44737 19.9896L1.04233 23.9966C-0.410137 25.3179 -0.411802 27.6029 1.03873 28.9263L12.9496 39.7928L1.03873 50.6593C-0.411802 51.9827 -0.410137 54.2677 1.04233 55.5889L5.44737 59.596C6.63481 60.6761 8.42317 60.7557 9.70165 59.7852L23.436 49.3597L54.9671 78.1261C55.4659 78.6252 56.0516 79.0011 56.6814 79.2465ZM59.964 21.6319L36.0392 39.7928L59.964 57.9537V21.6319Z" fill="url(#paint2_linear_380_98)"/>
</g>
</g>
<defs>
<filter id="filter0_d_380_98" x="-6.71477" y="12.4554" width="93.3819" height="73.7962" filterUnits="userSpaceOnUse" color-interpolation-filters="sRGB">
<feFlood flood-opacity="0" result="BackgroundImageFix"/>
<feColorMatrix in="SourceAlpha" type="matrix" values="0 0 0 0 0 0 0 0 0 0 0 0 0 0 0 0 0 0 127 0" result="hardAlpha"/>
<feOffset/>
<feGaussianBlur stdDeviation="3.33334"/>
<feColorMatrix type="matrix" values="0 0 0 0 0 0 0 0 0 0 0 0 0 0 0 0 0 0 0.25 0"/>
<feBlend mode="overlay" in2="BackgroundImageFix" result="effect1_dropShadow_380_98"/>
<feBlend mode="normal" in="SourceGraphic" in2="effect1_dropShadow_380_98" result="shape"/>
</filter>
<filter id="filter1_d_380_98" x="48.3345" y="-6.66765" width="38.3333" height="92.9212" filterUnits="userSpaceOnUse" color-interpolation-filters="sRGB">
<feFlood flood-opacity="0" result="BackgroundImageFix"/>
<feColorMatrix in="SourceAlpha" type="matrix" values="0 0 0 0 0 0 0 0 0 0 0 0 0 0 0 0 0 0 127 0" result="hardAlpha"/>
<feOffset/>
<feGaussianBlur stdDeviation="3.33334"/>
<feColorMatrix type="matrix" values="0 0 0 0 0 0 0 0 0 0 0 0 0 0 0 0 0 0 0.25 0"/>
<feBlend mode="overlay" in2="BackgroundImageFix" result="effect1_dropShadow_380_98"/>
<feBlend mode="normal" in="SourceGraphic" in2="effect1_dropShadow_380_98" result="shape"/>
</filter>
<linearGradient id="paint0_linear_380_98" x1="5.36696" y1="23.8955" x2="84.0541" y2="33.0411" gradientUnits="userSpaceOnUse">
<stop offset="0.0695937" stop-color="#246BFD"/>
<stop offset="0.816425" stop-color="#0040C3"/>
</linearGradient>
<linearGradient id="paint1_linear_380_98" x1="56.6924" y1="6.28226" x2="81.5802" y2="6.96857" gradientUnits="userSpaceOnUse">
<stop offset="0.0695937" stop-color="#246BFD"/>
<stop offset="0.816425" stop-color="#0040C3"/>
</linearGradient>
<linearGradient id="paint2_linear_380_98" x1="39.9519" y1="-0.000977016" x2="39.9519" y2="79.5866" gradientUnits="userSpaceOnUse">
<stop stop-color="white"/>
<stop offset="1" stop-color="white" stop-opacity="0"/>
</linearGradient>
</defs>
</svg>
