<svg width="958" height="414" viewBox="0 0 958 414" fill="none" xmlns="http://www.w3.org/2000/svg">
<g opacity="0.59">
<path d="M-63.9023 149.089C-63.9023 149.089 242.747 19.7107 392.72 42.4018C542.692 65.0929 804.572 241.452 710.563 326.022C616.553 410.591 936.635 413.686 936.635 413.686" stroke="#00FFFF" stroke-width="0.226661" stroke-miterlimit="10"/>
<path d="M-59.3994 151.619C-59.3124 151.324 233.911 18.7279 385.792 40.3874C537.674 62.047 787.95 238.257 701.397 322.09C614.843 405.923 934.291 410.345 934.291 410.345" stroke="#09FCFF" stroke-width="0.226661" stroke-miterlimit="10"/>
<path d="M-54.9043 154.151C-54.7364 153.561 225.06 17.7469 378.864 38.372C532.667 58.9972 771.32 235.064 692.229 318.161C613.138 401.258 931.945 407.003 931.945 407.003" stroke="#12F9FF" stroke-width="0.226661" stroke-miterlimit="10"/>
<path d="M-50.4004 156.683C-50.1454 155.798 216.218 16.7628 371.944 36.3592C527.669 55.9557 754.699 231.874 683.07 314.234C611.442 396.594 929.609 403.666 929.609 403.666" stroke="#1BF6FF" stroke-width="0.226661" stroke-miterlimit="10"/>
<path d="M-45.9043 159.216C-45.5623 158.038 207.369 15.7825 365.009 34.3474C522.65 52.9124 738.063 228.682 673.898 310.305C609.732 391.929 927.258 400.328 927.258 400.328" stroke="#24F3FF" stroke-width="0.226661" stroke-miterlimit="10"/>
<path d="M-41.4092 161.749C-40.9863 160.276 198.519 14.8 358.081 32.3334C517.643 49.8668 721.439 225.49 664.73 306.377C608.027 387.265 924.912 396.987 924.912 396.987" stroke="#2DF0FF" stroke-width="0.226661" stroke-miterlimit="10"/>
<path d="M-36.9062 164.277C-36.3963 162.51 189.676 13.8155 351.153 30.3173C512.631 46.8191 704.811 222.296 655.57 302.444C606.33 382.595 922.575 393.644 922.575 393.644" stroke="#36EEFF" stroke-width="0.226661" stroke-miterlimit="10"/>
<path d="M-32.4102 166.812C-31.8194 164.749 180.826 12.8373 344.226 28.3048C507.625 43.7751 688.182 219.103 646.404 298.518C604.626 377.932 920.23 390.308 920.23 390.308" stroke="#3FEBFF" stroke-width="0.226661" stroke-miterlimit="10"/>
<path d="M-27.9141 169.344C-27.2362 166.986 171.977 11.8536 337.292 26.2923C502.606 40.7311 671.552 215.913 637.231 294.588C602.909 373.263 917.879 386.969 917.879 386.969" stroke="#48E8FF" stroke-width="0.226661" stroke-miterlimit="10"/>
<path d="M-23.4119 171.876C-22.647 169.222 163.134 10.872 330.37 24.2792C497.606 37.6864 654.929 212.719 628.07 290.661C601.211 368.603 915.535 383.629 915.535 383.629" stroke="#51E5FF" stroke-width="0.226661" stroke-miterlimit="10"/>
<path d="M-18.9158 174.409C-18.07 171.463 154.284 9.88935 323.436 22.265C492.587 34.6407 638.294 209.527 618.897 286.73C599.501 363.932 913.184 380.288 913.184 380.288" stroke="#5AE2FF" stroke-width="0.226661" stroke-miterlimit="10"/>
<path d="M-14.4121 176.938C-13.4793 173.697 145.442 8.90514 316.515 20.2493C487.589 31.5934 621.678 206.334 609.738 282.8C597.798 359.266 910.847 376.948 910.847 376.948" stroke="#62DFFF" stroke-width="0.226661" stroke-miterlimit="10"/>
<path d="M-9.91699 179.471C-8.89711 175.935 136.592 7.922 309.587 18.2374C482.581 28.5529 605.048 203.142 600.571 278.874C596.093 354.607 908.501 373.61 908.501 373.61" stroke="#6BDCFF" stroke-width="0.226661" stroke-miterlimit="10"/>
<path d="M-5.42188 182.004C-4.32115 178.173 127.741 6.94238 302.651 16.2234C477.562 25.5044 588.412 199.95 591.397 274.943C594.382 349.936 906.149 370.269 906.149 370.269" stroke="#74D9FF" stroke-width="0.226661" stroke-miterlimit="10"/>
<path d="M-0.918945 184.534C0.268847 180.408 118.899 5.95987 295.731 14.2094C472.562 22.4588 571.79 196.758 582.237 271.015C592.685 345.272 903.812 366.931 903.812 366.931" stroke="#7DD6FF" stroke-width="0.226661" stroke-miterlimit="10"/>
<path d="M3.57812 187.067C4.84676 182.646 110.05 4.97685 288.797 12.1976C467.545 19.4184 555.161 193.566 573.065 267.086C590.969 340.607 901.462 363.59 901.462 363.59" stroke="#86D3FF" stroke-width="0.226661" stroke-miterlimit="10"/>
<path d="M8.07324 189.6C9.42894 184.887 101.2 3.99704 281.869 10.1834C462.537 16.3727 538.531 190.374 563.898 263.158C589.264 335.942 899.116 360.252 899.116 360.252" stroke="#8FD1FF" stroke-width="0.226661" stroke-miterlimit="10"/>
<path d="M12.5762 192.13C14.0189 187.122 92.3572 3.01115 274.941 8.16886C457.525 13.3266 521.903 187.182 554.732 259.226C587.561 331.274 896.772 356.911 896.772 356.911" stroke="#98CEFF" stroke-width="0.226661" stroke-miterlimit="10"/>
<path d="M17.0732 194.664C18.5968 189.36 83.5087 2.03182 268.014 6.15799C452.52 10.2842 505.281 183.99 545.566 255.301C585.851 326.613 894.428 353.573 894.428 353.573" stroke="#A1CBFF" stroke-width="0.226661" stroke-miterlimit="10"/>
<path d="M21.5684 197.194C23.179 191.595 74.6583 1.04897 261.086 4.14073C447.513 7.2325 488.65 180.795 536.398 251.367C584.146 321.939 892.083 350.229 892.083 350.229" stroke="#AAC8FF" stroke-width="0.226661" stroke-miterlimit="10"/>
<path d="M26.0715 199.727C27.7693 193.832 65.8159 0.0655756 254.159 2.12866C442.501 4.19175 472.022 177.606 527.239 247.441C582.456 317.277 889.745 346.893 889.745 346.893" stroke="#B3C5FF" stroke-width="0.226661" stroke-miterlimit="10"/>
<path d="M30.5681 202.26C32.3467 196.07 56.9731 -0.914225 247.231 0.117318C437.489 1.14886 455.4 174.414 518.073 243.516C580.746 312.618 887.401 343.555 887.401 343.555" stroke="#BCC2FF" stroke-width="0.226661" stroke-miterlimit="10"/>
<path d="M24.6846 196.903C26.3823 191.009 63.7946 6.10511 248.829 6.29996C433.863 6.49767 455.374 167.338 520.939 234.277C586.504 301.215 891.126 341.13 890.703 340.941" stroke="#B3B9FF" stroke-width="0.226661" stroke-miterlimit="10"/>
<path d="M18.8018 191.552C20.4124 185.953 70.6168 13.1293 250.427 12.4903C430.238 11.8514 455.356 160.268 523.806 225.046C592.257 289.824 894.857 338.713 894.005 338.335" stroke="#AAB0FF" stroke-width="0.226661" stroke-miterlimit="10"/>
<path d="M12.9189 186.199C14.4426 180.895 77.4391 20.1517 252.026 18.6789C426.619 17.206 455.337 153.195 526.673 215.813C598.009 278.43 898.589 336.297 897.308 335.724" stroke="#A1A6FF" stroke-width="0.226661" stroke-miterlimit="10"/>
<path d="M7.0293 180.848C8.47206 175.839 84.2544 27.1765 253.624 24.8698C422.993 22.5603 455.312 146.128 529.54 206.582C603.767 267.036 902.313 333.88 900.609 333.118" stroke="#989DFF" stroke-width="0.226661" stroke-miterlimit="10"/>
<path d="M1.14551 175.494C2.50121 170.78 91.0756 34.2008 255.221 31.0575C419.366 27.9141 455.292 139.054 532.406 197.351C609.519 255.647 906.044 331.463 903.911 330.512" stroke="#8F94FF" stroke-width="0.226661" stroke-miterlimit="10"/>
<path d="M-4.73535 170.138C-3.46672 165.717 97.8998 41.2208 256.821 37.2408C415.743 33.2608 455.276 131.977 535.275 188.113C615.273 244.249 909.777 329.039 907.221 327.895" stroke="#868BFF" stroke-width="0.226661" stroke-miterlimit="10"/>
<path d="M-10.6201 164.787C-9.43233 160.661 104.72 48.2453 258.424 43.4314C412.128 38.6175 455.256 124.909 538.146 178.882C621.036 232.854 913.513 326.622 910.528 325.289" stroke="#7D81FF" stroke-width="0.226661" stroke-miterlimit="10"/>
<path d="M-16.5029 159.434C-15.4022 155.603 111.542 55.2677 260.022 49.62C408.496 43.9723 455.237 117.837 541.013 169.649C626.789 221.461 917.238 324.203 913.83 322.681" stroke="#7478FF" stroke-width="0.226661" stroke-miterlimit="10"/>
<path d="M-22.3857 154.081C-21.3659 150.545 118.371 62.2904 261.621 55.8089C404.871 49.3274 455.219 110.764 543.88 160.416C632.542 210.068 920.97 321.784 917.133 320.073" stroke="#6B6FFF" stroke-width="0.226661" stroke-miterlimit="10"/>
<path d="M-28.2754 148.729C-27.3426 145.488 125.186 69.3147 263.212 61.9993C401.245 54.6811 455.187 103.694 546.74 151.185C638.294 198.676 924.694 319.366 920.428 317.464" stroke="#6266FF" stroke-width="0.226661" stroke-miterlimit="10"/>
<path d="M-34.1572 143.373C-33.3115 140.427 132.009 76.3365 264.818 68.1816C397.627 60.0267 455.176 96.6178 549.614 141.948C644.053 187.279 928.433 316.947 923.738 314.852" stroke="#5A5CFF" stroke-width="0.226661" stroke-miterlimit="10"/>
<path d="M-40.041 138.021C-39.2761 135.367 138.831 83.3603 266.416 74.3716C394.001 65.3828 455.156 89.5467 552.481 132.717C649.805 175.887 932.157 314.529 927.046 312.245" stroke="#5153FF" stroke-width="0.226661" stroke-miterlimit="10"/>
<path d="M-45.9238 132.667C-45.246 130.309 145.653 90.3821 268.014 80.5595C390.375 70.7369 455.131 82.4736 555.348 123.483C655.564 164.493 935.889 312.109 930.348 309.634" stroke="#484AFF" stroke-width="0.226661" stroke-miterlimit="10"/>
<path d="M-51.8066 127.316C-51.2159 125.253 152.475 97.4068 269.612 86.7504C386.75 76.094 455.113 75.4063 558.215 114.253C661.316 153.099 939.62 309.693 933.65 307.028" stroke="#3F41FF" stroke-width="0.226661" stroke-miterlimit="10"/>
<path d="M-57.6953 121.959C-57.1854 120.191 159.291 104.425 271.211 92.9351C383.131 81.442 455.095 68.3299 561.088 105.016C667.082 141.701 943.352 307.27 936.959 304.416" stroke="#3637FF" stroke-width="0.226661" stroke-miterlimit="10"/>
<path d="M-63.5791 116.607C-63.1562 115.135 166.112 111.45 272.809 99.1228C379.505 86.7959 455.069 61.2566 563.954 95.7846C672.839 130.313 947.082 304.853 940.26 301.807" stroke="#2D2EFF" stroke-width="0.226661" stroke-miterlimit="10"/>
<path d="M-69.4619 111.255C-69.1199 110.077 172.935 118.476 274.407 105.312C375.879 92.1512 455.051 54.1875 566.821 86.5522C678.592 118.917 950.814 302.434 943.563 299.199" stroke="#2425FF" stroke-width="0.226661" stroke-miterlimit="10"/>
<path d="M-75.345 105.902C-75.09 105.016 179.763 125.498 276.011 111.501C372.26 97.5034 455.038 47.1154 569.694 77.3195C684.35 107.524 954.551 300.015 946.877 296.591" stroke="#1B1CFF" stroke-width="0.226661" stroke-miterlimit="10"/>
<path d="M-81.2278 100.55C-81.0599 99.9598 186.585 132.522 277.61 117.691C368.634 102.86 455.02 40.0443 572.562 68.088C690.103 96.1316 958.277 297.598 950.18 293.984" stroke="#1212FF" stroke-width="0.226661" stroke-miterlimit="10"/>
<path d="M-87.1104 95.195C-87.0233 94.8999 193.408 139.543 279.208 123.875C365.009 108.207 454.995 32.9701 575.429 58.8503C695.862 84.7306 962.008 295.177 953.482 291.369" stroke="#0909FF" stroke-width="0.226661" stroke-miterlimit="10"/>
<path d="M-93 89.8417C-93 89.8417 200.223 146.565 280.8 130.063C361.383 113.561 454.97 25.8975 578.289 49.6173C701.608 73.337 965.733 292.758 956.778 288.761" stroke="#0000FF" stroke-width="0.226661" stroke-miterlimit="10"/>
</g>
</svg>
