<svg width="1382" height="778" viewBox="0 0 1382 778" fill="none" xmlns="http://www.w3.org/2000/svg">
<g opacity="0.59">
<path d="M43.417 280.102C43.417 280.102 500.47 37.0321 724.001 79.663C947.532 122.294 1337.86 453.63 1197.74 612.514C1057.62 771.399 1534.69 777.213 1534.69 777.213" stroke="#00FFFF" stroke-width="0.42584" stroke-miterlimit="10"/>
<path d="M50.127 284.856C50.2567 284.301 487.298 35.1855 713.675 75.8784C940.051 116.571 1313.08 447.627 1184.08 605.128C1055.07 762.63 1531.2 770.936 1531.2 770.936" stroke="#09FCFF" stroke-width="0.42584" stroke-miterlimit="10"/>
<path d="M56.8281 289.613C57.0784 288.504 474.108 33.343 703.349 72.0925C932.589 110.842 1288.3 441.629 1170.41 597.746C1052.53 753.864 1527.7 764.658 1527.7 764.658" stroke="#12F9FF" stroke-width="0.42584" stroke-miterlimit="10"/>
<path d="M63.54 294.368C63.9201 292.705 460.929 31.493 693.034 68.3098C925.138 105.127 1263.52 435.633 1156.76 590.368C1050 745.102 1524.22 758.388 1524.22 758.388" stroke="#1BF6FF" stroke-width="0.42584" stroke-miterlimit="10"/>
<path d="M70.2412 299.127C70.751 296.914 447.739 29.6516 682.698 64.5304C917.658 99.4093 1238.73 429.636 1143.09 582.987C1047.45 736.337 1520.72 752.116 1520.72 752.116" stroke="#24F3FF" stroke-width="0.42584" stroke-miterlimit="10"/>
<path d="M76.9419 303.885C77.5722 301.118 434.548 27.8045 672.372 60.7454C910.195 93.6862 1213.95 423.638 1129.43 575.606C1044.91 727.573 1517.22 745.839 1517.22 745.839" stroke="#2DF0FF" stroke-width="0.42584" stroke-miterlimit="10"/>
<path d="M83.6528 308.638C84.4129 305.317 421.368 25.9578 662.047 56.9606C902.725 87.9634 1189.16 417.641 1115.77 568.219C1042.38 718.803 1513.74 739.561 1513.74 739.561" stroke="#36EEFF" stroke-width="0.42584" stroke-miterlimit="10"/>
<path d="M90.3545 313.399C91.235 309.523 408.179 24.1177 651.721 53.1771C895.264 82.242 1164.38 411.64 1102.11 560.84C1039.84 710.04 1510.24 733.291 1510.24 733.291" stroke="#3FEBFF" stroke-width="0.42584" stroke-miterlimit="10"/>
<path d="M97.0557 318.156C98.066 313.726 394.989 22.2701 641.386 49.3969C887.783 76.5237 1139.59 405.647 1088.44 553.458C1037.28 701.269 1506.74 727.018 1506.74 727.018" stroke="#48E8FF" stroke-width="0.42584" stroke-miterlimit="10"/>
<path d="M103.766 322.912C104.906 317.927 381.808 20.4262 631.069 45.615C880.331 70.8038 1114.82 399.647 1074.78 546.08C1034.75 692.513 1503.24 720.744 1503.24 720.744" stroke="#51E5FF" stroke-width="0.42584" stroke-miterlimit="10"/>
<path d="M110.468 327.671C111.728 322.137 368.618 18.5791 620.734 41.8299C872.851 65.0807 1090.02 393.649 1061.11 538.694C1032.2 683.738 1499.74 714.466 1499.74 714.466" stroke="#5AE2FF" stroke-width="0.42584" stroke-miterlimit="10"/>
<path d="M117.18 332.422C118.57 326.334 355.439 16.7307 610.419 38.0434C865.4 59.3562 1065.26 387.65 1047.46 531.311C1029.66 674.972 1496.26 708.192 1496.26 708.192" stroke="#62DFFF" stroke-width="0.42584" stroke-miterlimit="10"/>
<path d="M123.88 337.182C125.4 330.539 342.248 14.8851 600.093 34.2653C857.937 53.6454 1040.47 381.654 1033.8 523.937C1027.12 666.219 1492.76 701.922 1492.76 701.922" stroke="#6BDCFF" stroke-width="0.42584" stroke-miterlimit="10"/>
<path d="M130.582 341.941C132.222 334.743 329.058 13.0441 589.758 30.4808C850.457 47.9175 1015.68 375.657 1020.13 516.551C1024.57 657.444 1489.26 695.645 1489.26 695.645" stroke="#74D9FF" stroke-width="0.42584" stroke-miterlimit="10"/>
<path d="M137.292 346.694C139.063 338.942 315.878 11.1966 579.441 26.6954C843.005 42.1941 990.901 369.659 1006.47 509.169C1022.04 648.679 1485.77 689.372 1485.77 689.372" stroke="#7DD6FF" stroke-width="0.42584" stroke-miterlimit="10"/>
<path d="M143.994 351.453C145.885 343.146 302.688 9.35059 569.107 22.9167C835.525 36.4828 966.116 363.662 992.801 501.789C1019.49 639.915 1482.27 683.096 1482.27 683.096" stroke="#86D3FF" stroke-width="0.42584" stroke-miterlimit="10"/>
<path d="M150.695 356.211C152.715 347.356 289.498 7.50906 558.78 19.1318C828.063 30.7598 941.33 357.665 979.138 494.408C1016.95 631.151 1478.77 676.824 1478.77 676.824" stroke="#8FD1FF" stroke-width="0.42584" stroke-miterlimit="10"/>
<path d="M157.406 360.965C159.557 351.555 276.318 5.65723 548.455 15.3473C820.593 25.0374 916.545 351.668 965.476 487.022C1014.41 622.382 1475.28 670.547 1475.28 670.547" stroke="#98CEFF" stroke-width="0.42584" stroke-miterlimit="10"/>
<path d="M164.108 365.725C166.379 355.76 263.128 3.81701 538.13 11.5691C813.131 19.3211 891.769 345.672 951.814 479.648C1011.86 613.624 1471.79 664.276 1471.79 664.276" stroke="#A1CBFF" stroke-width="0.42584" stroke-miterlimit="10"/>
<path d="M170.809 370.479C173.209 359.959 249.938 1.97074 527.803 7.7794C805.669 13.5881 866.983 339.67 938.15 472.257C1009.32 604.844 1468.29 657.994 1468.29 657.994" stroke="#AAC8FF" stroke-width="0.42584" stroke-miterlimit="10"/>
<path d="M177.52 375.237C180.05 364.163 236.758 0.123455 517.478 3.99948C798.199 7.87551 842.199 333.677 924.498 464.881C1006.8 596.084 1464.81 651.727 1464.81 651.727" stroke="#B3C5FF" stroke-width="0.42584" stroke-miterlimit="10"/>
<path d="M184.222 379.996C186.873 368.368 223.578 -1.71754 507.153 0.220475C790.729 2.15849 817.423 327.68 910.836 457.506C1004.25 587.331 1461.31 645.455 1461.31 645.455" stroke="#BCC2FF" stroke-width="0.42584" stroke-miterlimit="10"/>
<path d="M175.453 369.933C177.983 358.859 233.745 11.4702 509.535 11.8362C785.324 12.2077 817.385 314.387 915.108 440.148C1012.83 565.909 1466.86 640.899 1466.23 640.544" stroke="#B3B9FF" stroke-width="0.42584" stroke-miterlimit="10"/>
<path d="M166.685 359.879C169.085 349.359 243.914 24.6668 511.917 23.4663C779.92 22.2658 817.358 301.103 919.382 422.805C1021.41 544.507 1472.42 636.358 1471.15 635.647" stroke="#AAB0FF" stroke-width="0.42584" stroke-miterlimit="10"/>
<path d="M157.917 349.822C160.187 339.857 254.082 37.8606 514.3 35.0936C774.526 32.3265 817.33 287.816 923.655 405.459C1029.98 523.101 1477.99 631.819 1476.08 630.742" stroke="#A1A6FF" stroke-width="0.42584" stroke-miterlimit="10"/>
<path d="M149.138 339.767C151.289 330.357 264.24 51.0572 516.681 46.7236C769.122 42.3846 817.293 274.537 927.927 388.115C1038.56 501.694 1483.54 627.277 1481 625.845" stroke="#989DFF" stroke-width="0.42584" stroke-miterlimit="10"/>
<path d="M140.369 329.709C142.39 320.854 274.408 64.2553 519.063 58.3497C763.717 52.4441 817.264 261.249 932.2 370.774C1047.14 480.298 1489.1 622.737 1485.92 620.95" stroke="#8F94FF" stroke-width="0.42584" stroke-miterlimit="10"/>
<path d="M131.603 319.647C133.493 311.341 284.578 77.4439 521.447 69.9664C758.316 62.4889 817.238 247.951 936.475 353.417C1055.71 458.883 1494.66 618.182 1490.85 616.034" stroke="#868BFF" stroke-width="0.42584" stroke-miterlimit="10"/>
<path d="M122.833 309.592C124.604 301.84 294.745 90.6398 523.837 81.5957C752.93 72.5516 817.21 234.672 940.756 336.073C1064.3 437.474 1500.23 613.64 1495.78 611.136" stroke="#7D81FF" stroke-width="0.42584" stroke-miterlimit="10"/>
<path d="M114.064 299.536C115.705 292.338 304.913 103.834 526.219 93.2235C747.516 82.6129 817.182 221.385 945.029 318.728C1072.88 416.07 1505.78 609.096 1500.7 606.237" stroke="#7478FF" stroke-width="0.42584" stroke-miterlimit="10"/>
<path d="M105.296 289.48C106.816 282.836 315.09 117.029 528.601 104.851C742.112 92.6743 817.154 208.099 949.302 301.382C1081.45 394.665 1511.34 604.552 1505.63 601.338" stroke="#6B6FFF" stroke-width="0.42584" stroke-miterlimit="10"/>
<path d="M96.5181 279.424C97.9084 273.335 325.249 130.224 530.974 116.48C736.708 102.731 817.107 194.813 953.565 284.037C1090.02 373.261 1516.9 600.009 1510.54 596.434" stroke="#6266FF" stroke-width="0.42584" stroke-miterlimit="10"/>
<path d="M87.75 269.362C89.0106 263.828 335.417 143.418 533.366 128.097C731.314 112.776 817.089 181.521 957.848 266.686C1098.61 351.851 1522.47 595.465 1515.47 591.53" stroke="#5A5CFF" stroke-width="0.42584" stroke-miterlimit="10"/>
<path d="M78.9814 259.307C80.1215 254.322 345.585 156.614 535.748 139.726C725.91 122.838 817.061 168.236 962.121 249.342C1107.18 330.448 1528.02 590.922 1520.4 586.632" stroke="#5153FF" stroke-width="0.42584" stroke-miterlimit="10"/>
<path d="M70.2129 249.249C71.2232 244.819 355.753 169.807 538.13 151.353C720.506 132.899 817.024 154.949 966.394 231.996C1115.76 309.042 1533.58 586.378 1525.32 581.726" stroke="#484AFF" stroke-width="0.42584" stroke-miterlimit="10"/>
<path d="M61.4443 239.194C62.3249 235.318 365.921 183.003 540.512 162.982C715.102 142.961 816.996 141.669 970.667 214.651C1124.34 287.634 1539.14 581.835 1530.24 576.828" stroke="#3F41FF" stroke-width="0.42584" stroke-miterlimit="10"/>
<path d="M52.6675 229.131C53.4275 225.81 376.081 196.19 542.895 174.603C709.708 153.01 816.969 128.376 974.95 197.299C1132.93 266.223 1544.7 577.285 1535.18 571.923" stroke="#3637FF" stroke-width="0.42584" stroke-miterlimit="10"/>
<path d="M43.8989 219.076C44.5292 216.309 386.249 209.386 545.277 186.227C704.305 163.068 816.932 115.086 979.223 179.955C1141.51 244.825 1550.27 572.742 1540.1 567.02" stroke="#2D2EFF" stroke-width="0.42584" stroke-miterlimit="10"/>
<path d="M35.1304 209.02C35.6402 206.807 396.417 222.586 547.659 197.855C698.901 173.129 816.904 101.805 983.495 162.61C1150.09 223.415 1555.83 568.198 1545.02 562.12" stroke="#2425FF" stroke-width="0.42584" stroke-miterlimit="10"/>
<path d="M26.3613 198.963C26.7414 197.3 406.593 235.78 550.049 209.482C693.506 183.184 816.885 88.5178 987.777 145.264C1158.67 202.01 1561.4 563.654 1549.96 557.221" stroke="#1B1CFF" stroke-width="0.42584" stroke-miterlimit="10"/>
<path d="M17.5933 188.909C17.8435 187.8 416.762 248.977 552.432 221.113C688.102 193.248 816.858 75.2342 992.051 127.921C1167.24 180.608 1566.95 559.113 1554.88 552.325" stroke="#1212FF" stroke-width="0.42584" stroke-miterlimit="10"/>
<path d="M8.8252 178.848C8.95496 178.294 426.93 262.167 554.815 232.731C682.699 203.294 816.821 61.9431 996.324 110.566C1175.83 159.188 1572.51 554.565 1559.8 547.41" stroke="#0909FF" stroke-width="0.42584" stroke-miterlimit="10"/>
<path d="M0.046875 168.791C0.046875 168.791 437.089 275.36 557.187 244.357C677.294 213.354 816.783 48.6552 1000.59 93.2188C1184.39 137.782 1578.06 550.019 1564.72 542.51" stroke="#0000FF" stroke-width="0.42584" stroke-miterlimit="10"/>
</g>
</svg>
