<svg width="1151" height="450" viewBox="0 0 1151 450" fill="none" xmlns="http://www.w3.org/2000/svg">
<g opacity="0.59">
<path d="M-371.63 280.102C-371.63 280.102 85.4235 37.0321 308.954 79.663C532.485 122.294 922.811 453.63 782.692 612.514C642.573 771.399 1119.65 777.213 1119.65 777.213" stroke="#00FFFF" stroke-width="0.42584" stroke-miterlimit="10"/>
<path d="M-364.92 284.856C-364.79 284.301 72.2516 35.1855 298.628 75.8784C525.004 116.571 898.034 447.627 769.029 605.128C640.023 762.63 1116.15 770.936 1116.15 770.936" stroke="#09FCFF" stroke-width="0.42584" stroke-miterlimit="10"/>
<path d="M-358.219 289.613C-357.968 288.504 59.0618 33.343 288.302 72.0925C517.543 110.842 873.249 441.629 755.366 597.746C637.483 753.864 1112.66 764.658 1112.66 764.658" stroke="#12F9FF" stroke-width="0.42584" stroke-miterlimit="10"/>
<path d="M-351.507 294.368C-351.127 292.705 45.882 31.493 277.987 68.3098C510.091 105.127 848.474 435.633 741.714 590.368C634.954 745.102 1109.17 758.388 1109.17 758.388" stroke="#1BF6FF" stroke-width="0.42584" stroke-miterlimit="10"/>
<path d="M-344.806 299.127C-344.296 296.914 32.6921 29.6516 267.652 64.5304C502.611 99.4093 823.679 429.636 728.042 582.987C632.404 736.337 1105.67 752.116 1105.67 752.116" stroke="#24F3FF" stroke-width="0.42584" stroke-miterlimit="10"/>
<path d="M-338.105 303.885C-337.474 301.118 19.5018 27.8045 257.325 60.7454C495.149 93.6862 798.903 423.638 714.379 575.606C629.864 727.573 1102.17 745.839 1102.17 745.839" stroke="#2DF0FF" stroke-width="0.42584" stroke-miterlimit="10"/>
<path d="M-331.394 308.638C-330.634 305.317 6.32152 25.9578 247 56.9606C487.678 87.9634 774.118 417.641 700.726 568.219C627.334 718.803 1098.69 739.561 1098.69 739.561" stroke="#36EEFF" stroke-width="0.42584" stroke-miterlimit="10"/>
<path d="M-324.692 313.399C-323.812 309.523 -6.86823 24.1177 236.674 53.1771C480.217 82.242 749.332 411.64 687.063 560.84C624.794 710.04 1095.2 733.291 1095.2 733.291" stroke="#3FEBFF" stroke-width="0.42584" stroke-miterlimit="10"/>
<path d="M-317.991 318.156C-316.981 313.726 -20.0583 22.2701 226.339 49.3969C472.736 76.5237 724.547 405.647 673.391 553.458C622.236 701.269 1091.69 727.018 1091.69 727.018" stroke="#48E8FF" stroke-width="0.42584" stroke-miterlimit="10"/>
<path d="M-311.281 322.912C-310.141 317.927 -33.2391 20.4262 216.022 45.615C465.284 70.8038 699.77 399.647 659.738 546.08C619.705 692.513 1088.2 720.744 1088.2 720.744" stroke="#51E5FF" stroke-width="0.42584" stroke-miterlimit="10"/>
<path d="M-304.579 327.671C-303.319 322.137 -46.4287 18.5791 205.688 41.8299C457.804 65.0807 674.976 393.649 646.066 538.694C617.156 683.738 1084.69 714.466 1084.69 714.466" stroke="#5AE2FF" stroke-width="0.42584" stroke-miterlimit="10"/>
<path d="M-297.867 332.422C-296.477 326.334 -59.608 16.7307 195.372 38.0434C450.353 59.3562 650.211 387.65 632.414 531.311C614.618 674.972 1081.21 708.192 1081.21 708.192" stroke="#62DFFF" stroke-width="0.42584" stroke-miterlimit="10"/>
<path d="M-291.167 337.182C-289.646 330.539 -72.7986 14.8851 185.046 34.2653C442.89 53.6454 625.424 381.654 618.751 523.937C612.077 666.219 1077.71 701.922 1077.71 701.922" stroke="#6BDCFF" stroke-width="0.42584" stroke-miterlimit="10"/>
<path d="M-284.465 341.941C-282.825 334.743 -85.9887 13.0441 174.711 30.4808C435.41 47.9175 600.63 375.657 605.079 516.551C609.528 657.444 1074.21 695.645 1074.21 695.645" stroke="#74D9FF" stroke-width="0.42584" stroke-miterlimit="10"/>
<path d="M-277.754 346.694C-275.984 338.942 -99.1689 11.1966 164.395 26.6954C427.958 42.1941 575.854 369.659 591.426 509.169C606.998 648.679 1070.72 689.372 1070.72 689.372" stroke="#7DD6FF" stroke-width="0.42584" stroke-miterlimit="10"/>
<path d="M-271.053 351.453C-269.162 343.146 -112.359 9.35059 154.06 22.9167C420.478 36.4828 551.069 363.662 577.754 501.789C604.439 639.915 1067.22 683.096 1067.22 683.096" stroke="#86D3FF" stroke-width="0.42584" stroke-miterlimit="10"/>
<path d="M-264.352 356.211C-262.331 347.356 -125.549 7.50906 143.733 19.1318C413.016 30.7598 526.283 357.665 564.091 494.408C601.899 631.151 1063.73 676.824 1063.73 676.824" stroke="#8FD1FF" stroke-width="0.42584" stroke-miterlimit="10"/>
<path d="M-257.641 360.965C-255.49 351.555 -138.729 5.65723 133.408 15.3473C405.546 25.0374 501.498 351.668 550.429 487.022C599.36 622.382 1060.23 670.547 1060.23 670.547" stroke="#98CEFF" stroke-width="0.42584" stroke-miterlimit="10"/>
<path d="M-250.939 365.725C-248.668 355.76 -151.919 3.81701 123.083 11.5691C398.084 19.3211 476.722 345.672 536.767 479.648C596.811 613.624 1056.74 664.276 1056.74 664.276" stroke="#A1CBFF" stroke-width="0.42584" stroke-miterlimit="10"/>
<path d="M-244.239 370.479C-241.838 359.959 -165.109 1.97074 112.756 7.7794C390.622 13.5881 451.936 339.67 523.103 472.257C594.271 604.844 1053.24 657.994 1053.24 657.994" stroke="#AAC8FF" stroke-width="0.42584" stroke-miterlimit="10"/>
<path d="M-237.527 375.237C-234.996 364.163 -178.289 0.123455 102.432 3.99948C383.152 7.87551 427.152 333.677 509.451 464.881C591.75 596.084 1049.76 651.727 1049.76 651.727" stroke="#B3C5FF" stroke-width="0.42584" stroke-miterlimit="10"/>
<path d="M-230.825 379.996C-228.174 368.368 -191.469 -1.71754 92.1065 0.220475C375.682 2.15849 402.376 327.68 495.789 457.506C589.202 587.331 1046.26 645.455 1046.26 645.455" stroke="#BCC2FF" stroke-width="0.42584" stroke-miterlimit="10"/>
<path d="M-239.594 369.933C-237.064 358.859 -181.302 11.4702 94.4877 11.8362C370.277 12.2077 402.338 314.387 500.061 440.148C597.784 565.909 1051.82 640.899 1051.19 640.544" stroke="#B3B9FF" stroke-width="0.42584" stroke-miterlimit="10"/>
<path d="M-248.362 359.879C-245.961 349.359 -171.133 24.6668 96.8705 23.4663C364.874 22.2658 402.311 301.103 504.335 422.805C606.359 544.507 1057.38 636.358 1056.11 635.647" stroke="#AAB0FF" stroke-width="0.42584" stroke-miterlimit="10"/>
<path d="M-257.13 349.822C-254.859 339.857 -160.965 37.8606 99.2527 35.0936C359.479 32.3265 402.283 287.816 508.608 405.459C614.932 523.101 1062.94 631.819 1061.03 630.742" stroke="#A1A6FF" stroke-width="0.42584" stroke-miterlimit="10"/>
<path d="M-265.909 339.767C-263.759 330.357 -150.807 51.0572 101.634 46.7236C354.075 42.3846 402.246 274.537 512.88 388.115C623.515 501.694 1068.49 627.277 1065.95 625.845" stroke="#989DFF" stroke-width="0.42584" stroke-miterlimit="10"/>
<path d="M-274.677 329.709C-272.657 320.854 -140.639 64.2553 104.016 58.3497C348.671 52.4441 402.218 261.249 517.153 370.774C632.088 480.298 1074.05 622.737 1070.87 620.95" stroke="#8F94FF" stroke-width="0.42584" stroke-miterlimit="10"/>
<path d="M-283.445 319.647C-281.554 311.341 -130.469 77.4439 106.4 69.9664C343.268 62.4889 402.191 247.951 521.427 353.417C640.664 458.883 1079.61 618.182 1075.81 616.034" stroke="#868BFF" stroke-width="0.42584" stroke-miterlimit="10"/>
<path d="M-292.213 309.592C-290.443 301.84 -120.302 90.6398 108.791 81.5957C337.883 72.5516 402.163 234.672 525.709 336.073C649.256 437.474 1085.19 613.64 1080.74 611.136" stroke="#7D81FF" stroke-width="0.42584" stroke-miterlimit="10"/>
<path d="M-300.982 299.536C-299.342 292.338 -110.134 103.834 111.172 93.2235C332.469 82.6129 402.135 221.385 529.982 318.728C657.829 416.07 1090.74 609.096 1085.66 606.237" stroke="#7478FF" stroke-width="0.42584" stroke-miterlimit="10"/>
<path d="M-309.751 289.48C-308.231 282.836 -99.9571 117.029 113.554 104.851C327.065 92.6743 402.107 208.099 534.254 301.382C666.402 394.665 1096.3 604.552 1090.58 601.338" stroke="#6B6FFF" stroke-width="0.42584" stroke-miterlimit="10"/>
<path d="M-318.529 279.424C-317.138 273.335 -89.7981 130.224 115.927 116.48C321.661 102.731 402.06 194.813 538.518 284.037C674.976 373.261 1101.85 600.009 1095.49 596.434" stroke="#6266FF" stroke-width="0.42584" stroke-miterlimit="10"/>
<path d="M-327.297 269.362C-326.036 263.828 -79.6294 143.418 118.319 128.097C316.267 112.776 402.042 181.521 542.801 266.686C683.56 351.851 1107.42 595.465 1100.42 591.53" stroke="#5A5CFF" stroke-width="0.42584" stroke-miterlimit="10"/>
<path d="M-336.065 259.307C-334.925 254.322 -69.4617 156.614 120.701 139.726C310.863 122.838 402.014 168.236 547.074 249.342C692.134 330.448 1112.97 590.922 1105.35 586.632" stroke="#5153FF" stroke-width="0.42584" stroke-miterlimit="10"/>
<path d="M-344.834 249.249C-343.824 244.819 -59.2938 169.807 123.083 151.353C305.459 132.899 401.977 154.949 551.347 231.996C700.716 309.042 1118.53 586.378 1110.28 581.726" stroke="#484AFF" stroke-width="0.42584" stroke-miterlimit="10"/>
<path d="M-353.602 239.194C-352.722 235.318 -49.1255 183.003 125.465 162.982C300.056 142.961 401.949 141.669 555.62 214.651C709.29 287.634 1124.1 581.835 1115.2 576.828" stroke="#3F41FF" stroke-width="0.42584" stroke-miterlimit="10"/>
<path d="M-362.379 229.131C-361.619 225.81 -38.9661 196.19 127.848 174.603C294.662 153.01 401.922 128.376 559.903 197.299C717.883 266.223 1129.66 577.285 1120.13 571.923" stroke="#3637FF" stroke-width="0.42584" stroke-miterlimit="10"/>
<path d="M-371.148 219.076C-370.518 216.309 -28.7982 209.386 130.23 186.227C289.258 163.068 401.885 115.086 564.176 179.955C726.466 244.825 1135.22 572.742 1125.05 567.02" stroke="#2D2EFF" stroke-width="0.42584" stroke-miterlimit="10"/>
<path d="M-379.916 209.02C-379.406 206.807 -18.6299 222.586 132.612 197.855C283.854 173.129 401.857 101.805 568.449 162.61C735.04 223.415 1140.78 568.198 1129.97 562.12" stroke="#2425FF" stroke-width="0.42584" stroke-miterlimit="10"/>
<path d="M-388.685 198.963C-388.305 197.3 -8.45317 235.78 135.003 209.482C278.459 183.184 401.838 88.5178 572.73 145.264C743.623 202.01 1146.35 563.654 1134.91 557.221" stroke="#1B1CFF" stroke-width="0.42584" stroke-miterlimit="10"/>
<path d="M-397.454 188.909C-397.203 187.8 1.71514 248.977 137.385 221.113C273.055 193.248 401.811 75.2342 577.004 127.921C752.197 180.608 1151.9 559.113 1139.83 552.325" stroke="#1212FF" stroke-width="0.42584" stroke-miterlimit="10"/>
<path d="M-406.221 178.848C-406.092 178.294 11.8838 262.167 139.768 232.731C267.652 203.294 401.774 61.9431 581.277 110.566C760.78 159.188 1157.46 554.565 1144.76 547.41" stroke="#0909FF" stroke-width="0.42584" stroke-miterlimit="10"/>
<path d="M-415 168.791C-415 168.791 22.0418 275.36 142.14 244.357C262.247 213.354 401.736 48.6552 585.54 93.2188C769.344 137.782 1163.02 550.019 1149.67 542.51" stroke="#0000FF" stroke-width="0.42584" stroke-miterlimit="10"/>
</g>
</svg>
