<svg width="13" height="13" viewBox="0 0 13 13" fill="none" xmlns="http://www.w3.org/2000/svg">
<path d="M6.1834 12.3433H6.15625C2.76173 12.3433 0 9.58075 0 6.18522V6.15806C0 2.76254 2.76173 0 6.15625 0H6.1834C9.57792 0 12.3397 2.76254 12.3397 6.15806V6.18522C12.3397 9.58075 9.57792 12.3433 6.1834 12.3433ZM6.15625 0.417808C2.99187 0.417808 0.417684 2.99275 0.417684 6.15806V6.18522C0.417684 9.35053 2.99187 11.9255 6.15625 11.9255H6.1834C9.34778 11.9255 11.922 9.35053 11.922 6.18522V6.15806C11.922 2.99275 9.34778 0.417808 6.1834 0.417808H6.15625Z" fill="url(#paint0_linear_421_637)"/>
<path d="M2.6265 2.90894L5.3757 6.58564L2.60938 9.57506H3.23214L5.6543 6.95791L7.61115 9.57506H9.73006L6.82632 5.69154L9.40134 2.90894H8.77857L6.54814 5.31928L4.74583 2.90894H2.62691H2.6265ZM3.54206 3.3677H4.51527L8.81366 9.11631H7.84046L3.54206 3.3677Z" fill="url(#paint1_linear_421_637)"/>
<defs>
<linearGradient id="paint0_linear_421_637" x1="0.834741" y1="0.974469" x2="13.0344" y2="2.04516" gradientUnits="userSpaceOnUse">
<stop offset="0.0695937" stop-color="#246BFD"/>
<stop offset="0.816425" stop-color="#0040C3"/>
</linearGradient>
<linearGradient id="paint1_linear_421_637" x1="3.09107" y1="3.43521" x2="10.1234" y2="4.09467" gradientUnits="userSpaceOnUse">
<stop offset="0.0695937" stop-color="#246BFD"/>
<stop offset="0.816425" stop-color="#0040C3"/>
</linearGradient>
</defs>
</svg>
