<svg width="35" height="35" viewBox="0 0 35 35" fill="none" xmlns="http://www.w3.org/2000/svg">
<path d="M17.5379 35.0091H17.4609C7.83307 35.0091 0 27.1738 0 17.5431V17.466C0 7.83536 7.83307 0 17.4609 0H17.5379C27.1658 0 34.9988 7.83536 34.9988 17.466V17.5431C34.9988 27.1738 27.1658 35.0091 17.5379 35.0091ZM17.4609 1.18502C8.48582 1.18502 1.18467 8.48831 1.18467 17.466V17.5431C1.18467 26.5208 8.48582 33.8241 17.4609 33.8241H17.5379C26.513 33.8241 33.8141 26.5208 33.8141 17.5431V17.466C33.8141 8.48831 26.513 1.18502 17.5379 1.18502H17.4609Z" fill="white"/>
<path d="M7.45019 8.25L15.2477 18.6782L7.40161 27.157H9.16796L16.0379 19.7341L21.5881 27.157H27.5979L19.3621 16.1423L26.6656 8.25H24.8992L18.5731 15.0864L13.4612 8.25H7.45136H7.45019ZM10.047 9.55118H12.8073L24.9988 25.8559H22.2385L10.047 9.55118Z" fill="white"/>
</svg>
