<svg width="13" height="13" viewBox="0 0 13 13" fill="none" xmlns="http://www.w3.org/2000/svg">
<path d="M6.16983 12.3433C2.76765 12.3433 0 9.57483 0 6.17165C0 2.76847 2.76765 0 6.16983 0C9.57201 0 12.3397 2.76847 12.3397 6.17165C12.3397 9.57483 9.57201 12.3433 6.16983 12.3433ZM6.16983 0.418956C2.99885 0.418956 0.418833 2.99973 0.418833 6.17165C0.418833 9.34356 2.99885 11.9243 6.16983 11.9243C9.34081 11.9243 11.9208 9.34356 11.9208 6.17165C11.9208 2.99973 9.34081 0.418956 6.16983 0.418956Z" fill="url(#paint0_linear_421_646)"/>
<path d="M9.92239 4.93606C9.87548 4.48317 9.77455 3.98251 9.40304 3.71941C9.1153 3.51538 8.73709 3.50783 8.38402 3.50825C7.63766 3.50867 6.89088 3.50951 6.14452 3.50993C5.42664 3.51077 4.70876 3.51119 3.99088 3.51203C3.691 3.51245 3.39949 3.48899 3.12096 3.61886C2.88181 3.73031 2.69459 3.94229 2.58192 4.17816C2.4257 4.50621 2.39303 4.87783 2.37419 5.24064C2.33942 5.90134 2.34319 6.56371 2.38466 7.22399C2.41523 7.70578 2.49271 8.23827 2.86506 8.54536C3.1951 8.81727 3.66084 8.83068 4.08888 8.8311C5.44758 8.83235 6.8067 8.83361 8.16581 8.83445C8.34004 8.83487 8.52182 8.83152 8.6994 8.81224C9.04871 8.77454 9.38168 8.67441 9.60617 8.41549C9.83276 8.15448 9.89098 7.79124 9.92533 7.44728C10.0091 6.61272 10.0083 5.7702 9.92239 4.93606ZM5.35879 7.34128V5.00142L7.38427 6.17114L5.35879 7.34128Z" fill="url(#paint1_linear_421_646)"/>
<defs>
<linearGradient id="paint0_linear_421_646" x1="0.834741" y1="0.97447" x2="13.0344" y2="2.04516" gradientUnits="userSpaceOnUse">
<stop offset="0.0695937" stop-color="#246BFD"/>
<stop offset="0.816425" stop-color="#0040C3"/>
</linearGradient>
<linearGradient id="paint1_linear_421_646" x1="2.8672" y1="3.92873" x2="10.3569" y2="4.8715" gradientUnits="userSpaceOnUse">
<stop offset="0.0695937" stop-color="#246BFD"/>
<stop offset="0.816425" stop-color="#0040C3"/>
</linearGradient>
</defs>
</svg>
