<svg width="35" height="35" viewBox="0 0 35 35" fill="none" xmlns="http://www.w3.org/2000/svg">
<path d="M17.4994 35.0092C7.84986 35.0092 0 27.157 0 17.5046C0 7.85217 7.84986 0 17.4994 0C27.149 0 34.9988 7.85217 34.9988 17.5046C34.9988 27.157 27.149 35.0092 17.4994 35.0092ZM17.4994 1.18828C8.5056 1.18828 1.18793 8.5081 1.18793 17.5046C1.18793 26.5011 8.5056 33.8209 17.4994 33.8209C26.4932 33.8209 33.8109 26.5011 33.8109 17.5046C33.8109 8.5081 26.4932 1.18828 17.4994 1.18828Z" fill="white"/>
<path d="M28.1445 13.9999C28.0115 12.7154 27.7252 11.2954 26.6715 10.5491C25.8554 9.97044 24.7827 9.94905 23.7813 9.95024C21.6644 9.95142 19.5463 9.9538 17.4294 9.95499C15.3933 9.95737 13.3572 9.95856 11.321 9.96094C10.4705 9.96213 9.64369 9.89559 8.85371 10.264C8.1754 10.58 7.6444 11.1813 7.32484 11.8503C6.88175 12.7807 6.78909 13.8347 6.73564 14.8638C6.63704 16.7377 6.64773 18.6164 6.76533 20.4891C6.85205 21.8556 7.07182 23.3659 8.12789 24.2369C9.06398 25.0081 10.385 25.0462 11.599 25.0474C15.4527 25.0509 19.3075 25.0545 23.1624 25.0569C23.6565 25.0581 24.1721 25.0485 24.6758 24.9939C25.6665 24.8869 26.6109 24.6029 27.2476 23.8686C27.8903 23.1283 28.0554 22.098 28.1529 21.1225C28.3904 18.7554 28.3881 16.3658 28.1445 13.9999ZM15.2008 20.8218V14.1853L20.9457 17.503L15.2008 20.8218Z" fill="white"/>
</svg>
